<?xml version='1.0' encoding='iso-8859-1'?>
<svg version="1.1" xmlns="http://www.w3.org/2000/svg" viewBox="0 0 281.533 281.533" xmlns:xlink="http://www.w3.org/1999/xlink" enable-background="new 0 0 281.533 281.533">
  <g>
    <path d="m279.072,3.297c-1.74-1.74-5.22-1.74-6.96-1.74-24.362,1.74-48.723,12.181-66.124,29.582l-43.503,43.503-133.99-13.921c-5.22,0-8.701,1.74-12.181,5.22l-10.441,10.441c-5.22,5.22-6.96,10.441-5.22,15.661 1.74,5.22 5.22,10.441 10.441,12.181l88.746,36.543-36.543,41.763-20.882-6.96c-1.74,0-1.74,0-3.48,0-8.701,0-13.921,5.22-17.401,12.181-1.74,6.96 0,15.661 5.22,20.882l45.243,45.243c3.48,3.48 8.701,5.22 13.921,5.22 10.441,0 19.141-6.96 19.141-17.401 0-1.74 0-1.74 0-3.48l-6.96-20.882 41.763-36.543 36.543,88.746c3.48,6.96 8.701,10.441 15.661,10.441 3.48,0 8.701-1.74 13.921-3.48l10.441-10.441c3.48-3.48 5.22-8.701 5.22-13.921l-13.921-132.249 43.503-43.503c17.401-17.401 27.842-41.763 29.582-66.124 1.74-3.482 0-5.223-1.74-6.962zm-43.503,60.904l-43.503,43.503c-3.48,3.48-5.22,8.701-5.22,13.921l13.921,130.509-8.701,8.701-36.543-87.006c-1.74-6.96-8.701-10.441-15.661-10.441-3.48,0-8.701,1.74-6.96,6.96l-46.984,40.022c-3.48,1.74-5.22,5.22-3.48,8.701l6.96,24.362c-1.74,0-1.74,0-3.48,0l-45.243-45.243v-1.74c0-1.74 0-1.74 0-1.74l24.362,6.96c3.48,0 6.96,0 8.701-3.48l40.023-46.983c3.48-5.22 5.22-10.441 3.48-15.661-1.74-5.22-5.22-10.441-10.441-12.181l-88.747-34.804 8.701-8.701 133.99,13.921c5.22,0 8.701-1.74 12.181-5.22l43.503-43.503c12.181-12.181 26.102-20.882 43.503-24.362-3.48,15.663-12.181,31.324-24.362,43.505z"/>
  </g>
</svg>
