<svg width="73" height="73" viewBox="0 0 73 73" fill="none" xmlns="http://www.w3.org/2000/svg">
<path d="M14.2417 64.6462C20.3404 69.3675 27.9953 72.2042 36.3005 72.2042C45.3892 72.2042 53.6748 68.8296 59.9983 63.2902C60.075 63.2225 60.0372 63.1777 59.9616 63.2225C57.124 65.1177 49.0366 69.2548 36.3009 69.2548C25.2329 69.2548 18.2385 66.7851 14.2885 64.5802C14.213 64.543 14.185 64.5996 14.2417 64.6462ZM38.7423 66.4844C47.5946 66.4844 57.3222 64.0711 63.1401 59.294C64.7322 57.9924 66.2487 56.2601 67.6069 53.932C68.3888 52.5924 69.1535 51.0009 69.7763 49.4366C69.804 49.3603 69.7569 49.3232 69.6995 49.4089C64.2892 57.3713 48.6223 62.3377 32.4454 62.3377C21.011 62.3377 8.7077 58.6809 3.89088 51.6985C3.84347 51.634 3.79606 51.6616 3.82492 51.7358C8.31213 61.2739 21.9253 66.4844 38.7423 66.4844ZM29.0704 50.6612C10.6593 50.6612 1.97811 42.0857 0.403355 36.2336C0.383935 36.1489 0.328125 36.1675 0.328125 36.2436C0.328125 38.2137 0.525298 40.7562 0.864533 42.4437C1.02636 43.2652 1.69486 44.5543 2.67495 45.5819C7.13312 50.2292 18.2479 56.741 37.497 56.741C63.7231 56.741 69.7196 48.0043 70.9441 45.1312C71.8198 43.0764 72.2734 39.3631 72.2734 36.2438C72.2734 35.489 72.2545 34.886 72.226 34.2941C72.226 34.1981 72.1704 34.1902 72.1511 34.2838C70.8406 41.3141 48.4334 50.6612 29.0704 50.6612ZM3.79606 20.8165C2.74108 22.9103 1.5717 26.4427 1.22406 28.2709C1.07168 29.0543 1.13659 29.4304 1.41126 30.015C3.61795 34.6973 14.7798 42.189 40.8161 42.189C56.7001 42.189 69.0392 38.2863 71.0383 31.1647C71.4064 29.8537 71.4261 28.4695 70.9532 26.6044C70.4249 24.5202 69.4353 22.0897 68.5978 20.3831C68.5702 20.3275 68.5214 20.3357 68.5313 20.4015C68.8424 29.7422 42.7958 35.7623 29.6538 35.7623C15.4187 35.7623 3.54272 30.0902 3.54272 22.9282C3.54272 22.24 3.68513 21.5517 3.86289 20.8354C3.88073 20.77 3.82475 20.7591 3.79606 20.8165ZM60.0566 9.34802C60.2077 9.58492 60.2831 9.83774 60.2831 10.1781C60.2831 14.1736 48.0555 21.2419 28.5907 21.2419C14.2885 21.2419 11.6109 15.9358 11.6109 12.5614C11.6109 11.3552 12.0735 10.121 13.0922 8.86756C13.1479 8.79302 13.1006 8.76433 13.0364 8.81979C11.1784 10.3945 9.4712 12.1664 7.9736 14.0791C7.25804 14.9837 6.81383 15.785 6.81383 16.2651C6.81383 23.258 24.347 28.3281 40.741 28.3281C58.2091 28.3281 66.005 22.6253 66.005 17.6136C66.005 15.8225 65.3078 14.7769 63.5243 12.7497C62.3667 11.431 61.2716 10.3572 60.1126 9.30025C60.0566 9.25406 60.0176 9.29168 60.0566 9.34802ZM54.7014 5.35337C49.3104 2.12175 43.05 0.283203 36.3009 0.283203C29.5046 0.283203 23.0556 2.18596 17.6452 5.50314C16.0223 6.50202 15.1089 7.30249 15.1089 8.33146C15.1089 11.3647 22.1972 14.626 34.7726 14.626C47.2176 14.626 56.8702 11.0538 56.8702 7.61515C56.8702 6.79439 56.1528 6.22015 54.7014 5.35337Z" fill="black"/>
</svg>
