<svg width="176" height="93" viewBox="0 0 176 93" fill="none" xmlns="http://www.w3.org/2000/svg">
<g clip-path="url(#clip0_321_279)">
<path fill-rule="evenodd" clip-rule="evenodd" d="M44.9966 65.607C44.9966 65.607 45.3557 67.1826 46.2412 66.5888C47.1268 65.996 47.4858 65.1063 48.3713 65.1063C49.2569 65.1063 52.9484 64.4142 53.834 65.1063C54.7195 65.7984 54.8082 65.2046 55.251 65.2046C55.6938 65.2046 56.9945 65.435 56.9945 65.435C58.1267 65.3172 57.8959 63.5224 57.0777 62.9972C55.8965 62.0747 54.3064 61.482 53.1256 60.5585C53.0072 59.6688 52.8894 58.7791 52.7713 57.8893C53.0959 57.4286 53.4207 56.9669 53.7456 56.5051C53.7456 55.0229 53.7456 53.5399 53.7456 52.057C53.5684 51.6615 53.3912 51.2661 53.2141 50.8706C53.155 49.7505 53.0959 48.6302 53.0369 47.5096C52.8894 47.3118 52.7417 47.1141 52.5941 46.9164C52.5941 46.4882 52.5941 46.0598 52.5941 45.6312C52.8894 45.203 53.4874 44.7747 53.7828 44.3462C53.8713 43.5223 53.4755 42.9409 53.5641 42.117C53.3573 41.0627 53.3322 39.7658 53.1256 38.7114C53.1256 37.4261 53.1256 36.1409 53.1256 34.8559C53.9822 34.6012 54.1898 34.2226 54.251 33.8395C54.3296 33.3464 54.0874 32.766 53.834 31.5935C53.7159 25.4315 53.6585 19.027 53.5405 12.8648C54.0116 12.1283 54.5763 11.7474 54.5882 11.2018C54.5975 10.777 54.1401 10.4228 53.5684 9.94378C53.5684 9.51541 53.5684 9.08725 53.5684 8.65857C53.5684 8.65857 54.5426 6.68136 55.3395 6.68136C56.1367 6.68136 56.668 6.08837 56.668 5.49527C57.3953 4.05423 55.871 3.91344 55.871 3.91344C54.184 3.87853 52.2733 3.96464 50.6277 3.93003C49.1761 3.89922 47.9846 3.74676 46.5721 3.71574C45.9521 3.74891 45.3321 3.78159 44.7122 3.81455C43.1886 4.27599 43.5088 5.10108 44.0923 5.56201C44.8007 6.00676 45.4052 6.51622 46.2177 6.53322C47.2092 6.5538 47.9985 6.87784 48.3432 7.86768C48.4319 11.822 48.5203 15.7764 48.6088 19.7306C48.6385 22.647 48.7286 25.5636 48.7579 28.4794C48.7874 31.3955 48.7568 34.3121 48.786 37.2283C48.845 40.6556 48.9041 44.0825 48.9632 47.5096C48.9632 47.5096 48.786 48.7948 48.5203 49.0914C48.2547 49.3879 48.3432 51.9581 48.3432 51.9581C49.324 52.8103 49.1155 52.691 48.4319 53.8365C48.3726 56.3741 48.3135 58.9111 48.2547 61.4482C48.0185 61.9099 47.7823 62.3717 47.546 62.8324C47.546 62.8324 44.9966 64.3221 44.9966 65.607V65.607ZM2.10771 77.8959C0.794481 77.6267 0.54825 76.9929 1.0147 76.6192C1.29462 76.395 2.04289 76.4032 2.37929 76.2466C2.87157 76.0152 3.37442 75.7121 3.6708 75.3466C4.17733 74.7211 3.87007 73.2734 4.47454 72.0939C5.0554 67.1181 5.22941 60.5257 4.64886 58.3081C4.30032 54.8904 4.6581 43.5377 4.6581 42.0988C5.0438 41.4076 5.18856 41.351 5.19154 40.1398C5.19256 39.6664 5.51194 38.9296 5.17172 38.3441C4.67823 37.7822 4.82739 35.5854 4.78879 34.3471C4.73171 32.5038 4.86733 32.5189 5.38166 30.8489C5.57528 30.2207 5.64088 29.4732 5.38166 28.8706C4.9626 27.8971 4.35668 29.022 4.39703 27.0667C4.49589 22.3217 4.67329 17.548 4.54815 12.8051C4.57525 12.3824 5.28104 12.3052 5.41923 11.9057C5.59488 11.3978 5.65309 10.7696 5.41923 10.2872C5.28679 10.0137 4.54559 10.3694 4.32815 10.1622C2.9993 8.89589 1.32946 8.10049 0.559434 6.41097C0.260966 5.75572 0.742341 4.30568 1.37508 3.99229C2.42331 3.4729 4.37311 4.0098 5.52005 3.81251C6.13684 3.70654 6.52716 3.34051 7.15196 3.31308C12.0252 3.09899 17.0399 2.61319 21.8957 3.09296C22.673 3.16974 22.9292 4.53726 23.6377 4.87676C24.6089 5.34219 26.029 5.24249 26.7734 6.03677C27.9666 7.30938 28.8227 8.35778 28.9741 10.1219C29.16 12.2869 29.533 14.7391 29.5148 16.4021C29.4994 17.7947 29.0797 19.0516 28.4571 20.2494C27.6044 21.891 26.5894 23.423 25.4902 25.0446C24.8566 25.9792 23.7288 26.8468 23.4635 27.9126C23.1892 29.0144 26.0435 28.2056 26.6274 29.1702C27.1886 30.0976 26.1486 31.1842 26.4623 32.2292C26.7425 33.1612 28.3607 33.252 28.5528 34.2074C29.0485 36.6734 27.9548 39.2811 28.3787 41.7611C28.5142 42.5552 29.7776 42.5835 29.9003 43.3799C30.0494 45.1007 29.9961 46.9223 30.0096 48.7506C30.0236 50.6966 30.0993 52.6512 30.0744 54.5011C30.0264 55.1984 29.111 55.6062 29.0293 56.2994C28.8112 58.1453 29.4472 60.2298 29.0385 62.0399C28.6078 63.9463 27.071 65.2926 26.4714 67.1498C25.9522 68.7583 26.0995 71.1069 25.2615 72.1154C23.8755 72.5495 22.1504 73.5221 21.0587 74.333C19.4635 75.5166 18.4436 76.8731 17.9532 76.9161C17.33 77.469 16.0118 77.0994 15.2391 77.3871C14.5267 77.6512 14.4595 78.2471 13.7082 78.1498C13.115 78.0741 13.2998 77.5826 12.8372 77.1926C12.5678 76.9643 12.0497 76.9499 11.792 77.1926C10.2282 78.4478 11.3946 78.1191 9.61892 77.9553C7.81515 77.7894 4.30423 78.3444 2.10843 77.8959H2.10771ZM12.2127 70.6769C12.6192 69.8978 13.0257 69.1187 13.4324 68.3385C13.316 65.7616 13.2 63.1836 13.0837 60.6056C13.4324 60.1254 13.7807 59.6462 14.1291 59.1661C14.1291 56.5696 14.1291 53.9732 14.1291 51.3765C14.1291 50.196 13.9641 49.0156 13.9641 47.8357C12.7412 46.8269 13.3259 46.8416 14.3124 45.6776C14.3124 44.5387 14.5878 43.6198 14.5878 42.4806C14.4714 41.5215 14.3554 40.5622 14.2392 39.603C14.4136 39.1235 14.5878 38.6439 14.762 38.1642C14.762 36.7217 14.9269 35.5545 14.9269 34.1118C14.9269 32.7573 14.9663 32.3035 15.2146 32.3884C15.4629 32.4732 15.9206 33.0972 16.7562 33.8983C17.391 34.5072 18.0263 35.1164 18.6614 35.7251C19.8345 36.8493 20.9768 36.9516 20.5014 38.7938C20.057 40.5172 21.334 40.9953 20.9372 42.7055C20.634 44.0118 20.2355 44.8105 20.3238 45.6203C20.3764 46.1061 20.6047 46.596 21.133 47.2019C21.6214 47.7618 21.7841 47.7269 21.4923 48.4159C21.0396 49.4836 20.6538 50.1063 20.6085 50.7473C20.5502 51.571 21.0002 51.9496 21.3948 53.4047C21.7178 54.5949 21.6875 55.3841 21.3887 56.5778C21.0348 57.9938 20.6809 59.4097 20.3269 60.8257C20.2871 61.8966 20.1893 62.9685 20.113 64.0405C19.9976 65.6735 19.7793 65.7155 18.6407 66.8826C17.6063 67.9433 16.275 68.8504 15.277 69.7985C14.1738 70.2183 13.3156 70.2572 12.2123 70.6769H12.2127ZM14.878 25.2346C15.7618 25.2605 16.157 25.3478 16.431 25.2351C16.7051 25.1223 16.8582 24.8095 17.258 24.0362C17.7743 23.0364 18.539 21.7869 19.1732 21.6929C20.2417 21.5347 20.7992 21.3761 20.7992 21.3761C20.7992 21.3761 21.3584 21.2705 21.1671 19.8962C20.9757 18.5219 20.5813 17.2004 20.9289 16.8305C21.2761 16.4605 21.3494 15.4034 20.9798 14.9805C20.6105 14.5579 20.2592 14.1348 20.8561 13.5535C21.4528 12.9721 21.8643 11.9987 20.4382 12.1574C19.0123 12.316 19.0299 11.7005 18.8651 11.2774C18.7002 10.8547 17.1447 10.9512 16.3314 10.9046C15.519 11.0632 14.8358 11.0103 14.8592 11.8559C14.8829 12.7015 14.7462 16.7777 14.758 17.2006C14.7697 17.6234 14.878 25.2345 14.878 25.2345V25.2346ZM59.9852 62.3389C59.9217 62.6983 59.0946 62.7003 59.1581 63.0607C59.247 63.5634 59.2801 64.3487 59.788 64.4142C61.2611 64.6046 63.2807 64.02 64.7415 64.2893C65.3183 64.3958 65.3498 65.3766 65.8788 65.6295C66.3132 65.6223 66.9821 65.6377 67.5331 65.6295C67.9573 65.4093 67.8433 64.6333 68.2569 64.3927C68.7662 64.0958 69.4609 63.9832 70.0146 64.1859C70.3126 64.2954 69.9059 65.0766 70.2213 65.1145C72.7983 65.0172 75.1005 65.2988 77.5388 65.1145C78.0257 65.0346 77.5295 64.3395 77.9284 64.0507C78.3819 63.7221 79.5063 64.2954 79.5827 63.7415C79.9787 60.8779 79.3606 57.6805 79.6303 54.803C79.7166 53.8818 80.6029 53.3356 80.8011 52.4314C80.867 52.1303 81.229 52.125 81.2578 51.8284C81.3582 50.7958 81.3398 49.5433 81.0778 48.5265C80.7304 48.1712 79.6685 48.042 79.3201 48.2038C78.9277 48.4921 79.2845 49.5153 79.021 49.9239C78.8906 50.1263 78.4265 49.7211 78.2972 49.9239C78.1702 50.1233 78.3344 50.4505 78.3926 50.7093C78.4275 50.8643 78.4243 50.995 78.2972 51.0582C77.6191 51.3962 76.6208 50.5941 76.0225 51.0582C75.4354 51.5136 76.0946 52.3948 75.5979 52.9469C74.7928 53.8419 73.0674 54.3662 72.2654 55.264C71.3118 56.3311 71.3969 57.4204 70.3011 58.3419C69.4433 59.0627 67.9857 59.1384 66.9462 59.5592C65.7413 60.0476 65.1659 60.9475 63.9143 61.2987C63.5361 61.4052 63.0748 60.7458 63.1906 60.3711C64.1283 57.3395 65.3469 54.2917 66.3593 51.2839C67.0086 49.3543 67.3135 48.137 68.0151 46.2252C68.7413 44.2469 69.6897 41.8016 70.8752 40.0578C71.1086 39.7142 71.8876 39.9385 72.0126 39.5422C72.3225 38.5586 71.7425 37.444 72.0126 36.4488C72.2123 35.7123 72.9898 35.0054 73.6334 34.5927C74.0681 34.314 74.762 34.7024 74.9538 34.2238C75.402 33.1066 74.9833 31.9232 75.2655 30.7533C75.4557 29.9651 75.9985 29.4821 76.3441 28.748C76.8024 27.7736 76.7689 26.9278 77.2746 25.977C77.6863 25.2034 78.5524 24.1206 78.8019 23.2806C79.1445 22.127 78.8637 21.5608 78.9752 20.3628C79.0051 20.0403 79.479 19.8617 79.4922 19.5379C79.6527 15.6576 79.8586 11.7635 79.6303 7.8862C79.6118 7.57025 78.9001 7.58386 78.9065 7.2675C78.9312 6.08262 79.0754 5.03577 79.0099 3.96792C78.9974 3.75926 79.0696 3.58839 78.8605 3.57969C75.6229 3.44423 72.4272 3.51773 69.1874 3.55541C66.5337 3.58602 63.8734 3.37389 61.226 3.55541C60.8254 3.58285 60.4664 3.65156 60.192 3.94366C59.9288 4.22388 59.7981 4.82189 59.8134 5.20521C59.8831 6.92841 59.7787 8.80447 59.8134 10.8765C59.8195 11.2604 60.5781 11.0307 60.709 11.3921C61.0736 12.3987 61.1015 13.5218 61.0193 14.5886C60.993 14.9314 60.5751 15.3929 60.5833 15.7361C60.7494 16.9289 60.9043 17.772 61.1226 18.9194C61.2482 19.3631 61.631 19.7097 61.743 20.1568C61.8767 20.6912 61.388 21.7708 61.9387 21.8065C62.1216 21.8182 62.7599 21.9246 63.0871 21.8065C63.5078 21.6545 62.9324 20.8853 63.0871 20.4661C63.1967 20.1688 63.7605 20.1599 63.8108 19.8475C64.0842 18.1495 63.6092 16.1599 63.8793 14.4612C63.9616 13.9436 64.2592 13.3967 64.7065 13.1208C65.087 12.8858 65.7756 13.4733 66.0506 13.1208C66.4318 12.6317 66.0568 12.0683 66.2924 11.4952C66.6298 10.675 67.1787 9.91869 67.8433 9.32979C68.4536 8.7887 69.0642 8.14114 69.8762 8.05688C71.6917 7.8688 73.8633 8.03763 76.3217 7.93207C76.5522 7.92183 76.6142 8.27525 76.6318 8.5049C76.7188 9.63571 76.9252 11.1721 76.6318 11.9077C76.2061 12.9753 75.2429 14.167 74.2651 15.2758C73.5961 16.0339 72.9199 16.7049 72.4037 17.4649C71.7851 18.376 72.7094 19.6184 72.3926 20.6724C72.0684 21.7504 71.1829 22.8964 70.4966 23.79C69.9336 24.5231 69.106 24.8983 68.5783 25.6569C67.9194 26.604 67.5356 27.5367 67.1195 28.6121C66.7735 29.5063 66.5506 30.4501 66.3957 31.3962C66.2736 32.1433 66.6316 32.988 66.2924 33.6647C66.0438 34.1604 65.4831 34.069 65.1215 34.4896C64.6201 35.0732 64.3264 35.8213 64.0876 36.5519C63.8047 37.4171 63.7815 37.9298 63.3399 38.726C62.8445 39.6192 61.85 40.4819 61.3993 41.3982C60.9077 42.3976 60.8514 43.6121 60.6056 44.6979C60.368 45.7479 60.1692 46.7369 59.9518 47.7913C59.6855 49.0816 59.4076 50.3927 59.4348 51.7096C59.443 52.1104 59.868 52.3863 60.0552 52.7407C60.2132 53.0401 60.576 53.3478 60.4688 53.6687C60.3223 54.1073 59.5003 54.1391 59.4348 54.5968C59.3672 55.0694 59.4879 55.5059 59.8358 55.8345C60.1383 56.1191 60.7559 55.9953 60.9732 56.3495C61.2068 56.7314 61.1648 57.2863 60.9732 57.6897C60.8137 58.0265 60.2539 57.9446 60.1809 58.3091C59.8836 59.7926 60.2486 60.8492 59.9852 62.3389V62.3389ZM149.632 76.952C149.438 76.3377 149.922 76.2179 150.245 75.8974C150.716 75.4285 151.172 74.9709 151.359 74.0474C151.429 73.6972 151.789 73.131 151.872 72.57C151.994 71.7509 151.807 70.8971 151.583 70.3677C151.29 69.6746 150.808 69.3132 150.983 68.6518C151.045 68.229 152.003 68.1768 152.759 67.842C153.155 67.6669 153.495 67.3239 153.621 67.0014C153.787 66.5765 153.236 66.6492 152.956 66.1097C152.657 65.5353 152.613 64.6753 152.383 64.2473C151.982 63.502 151.248 62.5017 151.221 61.655C151.149 59.3964 151.805 57.1164 151.889 54.9433C151.96 53.1211 152.392 52.6868 152.253 50.8196C152.184 49.8899 151.683 49.2133 151.166 48.2642C150.738 47.4774 150.175 46.6989 149.959 45.9569C149.576 44.6364 149.961 43.0712 149.729 41.7163C149.684 41.4507 149.017 41.1258 148.992 40.8573C148.82 38.9972 149.03 37.0925 148.91 35.2527C148.849 34.9065 148.567 34.8406 148.534 34.4906C148.437 33.4593 148.533 32.455 148.53 31.5635C148.527 30.7768 148.418 30.1046 148.418 29.1904C148.418 28.8496 148.135 28.6161 148.124 28.2753C148.055 26.2637 148.139 24.0424 148.112 22.0275C148.084 19.8825 147.952 17.9435 148.124 15.8076C148.154 15.4476 148.883 15.4563 148.869 15.0955C148.801 13.4588 148.66 12.8078 148.698 11.1616C148.702 10.9717 149.092 10.5303 149.107 10.3409C149.221 8.97136 149.392 7.60045 149.042 6.42837C148.789 5.57942 148.15 5.31496 147.417 4.76731C146.771 4.28356 146.049 3.49716 145.45 3.0564C144.685 2.49197 144.174 2.038 143.594 1.19273C143.245 0.683994 143.821 0.639566 144.464 0.62083C145.289 0.59677 146.191 0.668631 146.976 0.791286C147.242 0.832751 147.742 1.2897 147.993 1.38686C148.599 1.62111 148.995 1.31692 149.615 1.50991C150.089 1.65745 152.065 2.68496 152.597 2.99057C153.324 3.40808 153.559 4.01481 154.317 4.36946C154.454 4.43324 156.798 5.10232 157.07 5.1702C157.704 5.32817 158.098 4.86551 158.733 5.02349C159.47 5.20675 160.781 5.57707 161.608 5.82412C162.074 5.96315 162.369 6.51254 162.847 6.60734C165.162 7.06807 164.748 6.29845 166.581 8.1267C167.121 8.66543 168.013 9.0981 168.416 9.74547C168.985 10.659 169.044 11.7788 169.406 12.7745C169.687 13.5486 170.315 14.1845 170.464 15.007C170.865 17.2206 170.447 19.5225 170.719 21.7556C170.802 22.4376 171.505 23.1571 171.579 23.8404C171.859 26.4563 171.906 29.0393 171.587 31.6506C171.479 32.5308 170.736 32.8888 170.604 33.7657C170.383 35.2365 170.823 36.7427 170.719 38.2266C170.669 38.9371 170.273 39.6789 169.899 40.2854C169.626 40.7271 169.002 40.8863 168.802 41.3644C168.275 42.6196 168.408 44.3357 168.163 45.6958C168.087 48.2917 168.141 50.3056 168.253 52.8999C168.332 54.7286 168.52 56.37 168.285 58.1852C168.203 58.8139 167.676 59.1589 167.581 59.7865C167.32 61.5209 167.544 63.3023 167.376 65.0479C167.347 65.3449 166.906 65.6889 166.843 65.9806C166.726 67.5758 166.614 69.9039 165.917 71.6997C165.458 72.8843 164.342 74.0781 163.27 74.7641C162.233 75.4285 161.117 75.5719 159.921 75.8759C159.165 76.0674 158.319 75.9752 157.627 76.3326C157.212 76.5476 157.491 76.5506 157.112 76.8209C156.893 76.9755 156.515 76.9888 156.309 76.8209C156.017 76.5824 156.108 76.4851 155.768 76.3244C155.25 76.0797 154.574 76.0991 154.047 76.3244C153.668 76.4871 153.806 76.783 153.4 76.8619C152.579 77.0216 151.618 77.2284 150.731 77.2048C150.201 77.1915 149.782 77.4301 149.632 76.952V76.952ZM157.33 18.2129C158.482 18.1521 158.708 18.0898 159.734 18.6391C160.794 19.2062 161.016 19.5803 161.664 20.6051C161.999 20.9266 162.332 21.2483 162.666 21.5695C164.028 22.8809 164.671 24.7316 165.227 26.4659C165.319 28.3487 165.724 31.6473 164.782 33.3557C164.311 34.2086 164.126 34.8668 164.046 35.5904C163.823 37.6151 163.247 37.299 162.661 38.8323C162.502 39.2481 162.536 39.7656 162.522 40.7528C162.471 44.2775 162.418 47.8027 162.367 51.3273C162.334 53.5794 161.909 54.654 160.997 56.7335C160.461 57.7276 160.179 58.3685 160.179 59.4968C160.179 60.8339 159.905 61.4502 159.372 62.6686C159.048 63.4098 158.723 64.1521 158.398 64.8944C158.013 65.7738 157.66 66.0892 157.404 65.9714C157.149 65.8547 156.991 65.3029 156.995 64.449C157.017 60.1459 157.04 55.8437 157.063 51.5406C157.112 46.9657 157.161 42.3909 157.21 37.8162C157.153 36.8337 157.19 36.6161 156.543 35.8874C156.482 34.4065 156.196 33.7366 155.726 32.3266C155.132 31.2148 155.2 30.4037 155.186 29.1327C155.149 25.9532 155.111 22.7732 155.074 19.5937C155.051 17.6426 155.494 18.3097 157.33 18.2129V18.2129ZM82.1451 72.915C81.7903 71.1848 82.0384 69.8098 82.1314 68.5085C82.1758 68.1983 82.8033 68.488 82.9739 68.2259C83.2283 67.8338 83.458 67.2963 83.2898 66.8601C83.189 66.599 83.0106 66.9594 82.8599 66.7229C82.6518 66.3973 82.7249 65.8711 82.9651 65.568C83.3156 65.1247 84.0168 65.2394 84.2562 64.7275C84.5828 64.0292 84.0223 63.1508 84.2562 62.4167C84.3306 62.1833 84.9356 62.6553 84.9934 62.4167C85.2663 61.2936 84.9269 60.0936 85.0988 58.9511C85.1435 58.6531 85.4073 58.5149 85.442 58.2159C85.588 56.9638 85.6641 55.6758 85.442 54.4348C85.3041 53.6643 84.6798 53.1096 84.5722 52.3343C84.1814 49.5221 84.0631 46.4602 84.4259 43.6441C84.7077 41.458 86.1054 38.0773 86.9261 36.0306C87.4395 34.7503 87.6913 35.1496 88.1528 33.8494C88.2938 33.4521 88.3916 32.989 88.2582 32.5891C88.0919 32.091 87.5024 31.7102 87.5853 31.1917C87.6871 30.5564 88.4705 30.5723 88.6794 29.9634C88.9633 29.1355 88.3918 28.1645 88.6794 27.3378C89.0178 26.365 90.1837 25.8063 90.4697 24.8171C90.7428 23.8731 90.4501 22.365 90.7174 21.4192C91.2459 19.5506 91.8808 18.3437 92.7867 16.625C93.3215 15.6102 94.251 14.7527 94.6687 13.6841C95.0713 12.6546 95.0302 11.2916 95.2089 10.4284C94.5507 9.60787 93.0403 10.753 92.0495 10.3962C91.5467 10.2153 91.5485 9.39552 91.0509 9.20008C89.9851 9.12779 88.9661 9.10333 88.2074 9.67084C87.1897 10.432 87.1816 11.3242 86.7837 12.5288C86.1892 14.3288 86.6424 16.3511 85.9003 18.0953C85.6069 18.785 84.4099 18.979 83.835 19.4607C83.5308 19.7154 83.3894 19.981 82.9924 19.981C82.5953 19.981 82.2491 19.8442 82.1499 19.4607C81.9483 18.6812 82.1892 17.8494 82.1499 17.045C82.119 16.4119 81.779 15.7679 81.9393 15.1545C82.0229 14.835 82.7562 14.9588 82.7819 14.6294C83.0967 11.0208 82.6639 7.43552 82.7192 3.98727C82.7386 2.7766 83.0607 2.95606 84.2558 2.94398C86.2687 2.9233 89.459 2.93888 91.7727 2.9272C95.832 2.90693 99.9015 2.75581 103.949 2.86639C104.552 2.9099 105.336 3.13299 105.379 3.73377C105.464 4.94864 104.648 6.1201 104.083 7.19973C103.784 7.77031 103.117 8.14329 102.897 8.74786C102.524 9.7726 102.929 10.9869 102.535 12.0037C102.294 12.6277 101.067 12.7431 100.832 13.3691C100.498 14.2546 101.074 15.3248 100.726 16.2048C100.553 16.6418 99.6192 16.3921 99.4621 16.8349C98.9324 18.3336 99.2435 20.0264 98.8308 21.5612C98.6018 22.4085 97.9582 23.0025 97.8421 23.8718C97.5259 26.2315 98.0475 28.6421 97.8421 31.0137C97.797 31.5286 97.2518 31.8839 97.104 32.3791C96.757 33.5437 96.5383 34.8023 96.138 35.95C95.9655 36.4457 95.3249 36.7028 95.1904 37.2103C94.9927 37.9548 95.4881 38.8106 95.1904 39.5209C94.8155 40.4141 93.4961 40.7793 93.2946 41.7265C92.7261 44.3996 93.6263 47.2181 93.2079 49.9186C93.0207 51.1271 91.9526 52.0766 91.7335 53.2795C91.451 54.8293 91.9376 56.6618 91.5501 58.1883C91.1764 59.6626 90.105 60.9404 89.5677 62.3624C89.442 63.7579 87.7653 65.0387 88.6794 66.0933C89.7822 66.2387 91.6122 66.4629 92.8919 65.8824C93.481 65.6162 92.7988 64.3835 93.3132 63.9924C94.8857 62.7945 96.6903 62.3625 98.455 61.4717C99.4642 60.9619 100.733 60.4755 101.633 59.7916C102.09 59.4435 102.143 58.6173 102.686 58.4258C103.013 58.3101 103.081 59.1026 103.423 59.1609C104.599 59.3606 105.62 58.8589 106.775 59.1609C107.237 59.2818 107.222 59.9012 107.342 60.3619C107.45 60.7745 107.637 61.2188 107.407 61.5761C107.269 61.7911 106.767 61.5516 106.669 61.7871C106.469 62.2724 106.547 62.8518 106.669 63.3617C106.766 63.7589 107.13 64.0057 107.164 64.4121C107.345 66.5407 107.404 68.6968 107.164 70.8192C107.114 71.2646 106.86 71.7315 106.413 71.7775C103.376 71.6383 100.568 71.8605 97.5259 71.8697C97.2128 71.842 97.3925 71.2892 97.104 71.1663C96.3197 70.8305 94.9053 70.7844 94.0728 70.9749C93.1045 71.196 93.0235 71.9905 92.0495 72.184C90.294 72.5342 88.2651 72.1912 86.495 72.4584C85.8694 72.5526 85.3916 73.0819 84.7779 73.2345C83.9265 73.4464 82.5837 73.6727 82.1451 72.915V72.915ZM35.2346 77.8478C33.9214 78.3075 32.3893 77.8489 30.9974 77.8785C30.5684 77.8878 29.8701 78.2236 29.458 78.1028C29.0081 77.9717 28.2992 77.082 28.5804 76.7073C29.679 75.2463 31.8448 75.064 32.8478 73.5375C33.4377 72.6396 32.8851 71.4305 33.1386 70.3872C33.2164 70.0667 33.7794 70.0964 33.9459 69.8118C34.0812 69.5804 34.121 69.2108 33.9459 69.0071C33.546 68.5412 33.2927 69.518 33.1349 68.1235C32.9936 66.8765 32.964 65.61 33.08 64.364C33.1529 63.5706 33.7313 63.7385 33.8406 63.3197C34.0442 62.5406 33.6206 61.9632 33.8303 61.1851C33.9244 60.8359 34.5733 60.924 34.7531 60.6097C34.9244 60.3107 34.9447 59.8623 34.7531 59.5746C34.3602 58.9869 33.2923 58.9961 33.1733 58.2999C32.9544 57.0191 33.0717 55.6441 33.0943 54.3733C33.1184 53.0199 33.0252 51.6626 33.1384 50.2837C33.1592 50.0279 33.74 50.0388 33.8303 49.7983C34.0056 49.3318 33.8947 48.7972 33.8303 48.303C33.7788 47.9065 33.901 47.0955 33.8705 46.6968C33.8238 46.0842 33.5598 45.8567 33.8453 45.3125C34.0444 44.9332 34.6933 45.1616 34.7531 44.7374C35.0685 42.4974 34.3951 40.2006 34.6377 37.9513C34.6788 37.5702 35.2804 37.6308 35.3816 37.2611C35.5444 36.6647 35.5947 35.9793 35.3297 35.4208C35.2048 35.1571 34.6153 35.1561 34.5925 34.8652C34.3335 31.5784 34.7842 28.4709 34.5224 25.184C34.4978 24.8762 33.7398 25.3079 33.7257 23.9721C33.7101 22.5722 33.5808 21.2672 33.5998 20.2382C33.6144 19.4486 35.3226 19.4273 35.3046 18.6377C35.277 17.4345 35.4672 16.0766 35.1892 14.8421C35.0999 14.4451 34.5806 14.5108 34.4071 14.1421C34.2438 13.7958 34.3979 13.4505 34.5473 13.0972C34.7268 12.672 35.2144 12.4036 35.3297 11.9567C35.5408 11.1403 35.5196 10.2483 35.3297 9.42635C35.2675 9.15739 34.802 8.89456 34.6727 8.65048C34.4331 8.19877 34.5414 7.8001 34.2214 7.4008C34.0002 7.12529 33.3473 7.29453 33.0782 7.0655C32.3858 6.47578 31.9865 5.82012 31.4058 5.28302C30.8598 4.77858 30.1239 4.39844 29.7033 3.65575C29.433 3.17865 29.7479 2.35334 30.1847 2.02019C30.5202 1.76443 31.0457 1.82228 31.4184 2.02019C31.7214 2.18134 31.7154 2.82317 32.0552 2.87017C33.5418 3.07667 35.0172 2.42408 36.483 2.74536C37.122 2.88552 37.1561 3.69046 37.7517 3.96003C38.1501 4.14053 38.8684 3.79161 39.231 4.03589C39.7632 4.39454 40.2147 5.1576 40.6342 5.58372C41.1735 6.13157 41.6385 6.37544 41.9139 7.15119C42.2614 8.13068 42.1092 9.13568 42.0939 10.1545C42.0804 11.0534 42.2271 11.9638 42.1444 12.877C42.1167 13.1841 41.5251 13.0395 41.4424 13.337C41.2972 13.8591 41.401 14.4436 41.6731 14.9122C41.8709 15.2535 42.4068 15.0797 42.5356 15.4522C42.8362 16.3226 42.8745 17.3897 42.6509 18.2828C42.5678 18.6154 41.9242 18.4011 41.9038 18.743C41.6447 23.0678 41.5801 27.4302 42.019 31.7401C42.0935 32.4728 43.2549 32.7336 43.3329 33.4655C43.7682 37.5449 43.3719 41.674 43.2026 45.7726C43.1788 46.3555 42.8891 47.0882 42.6509 47.5232C42.3844 48.0094 42.5501 48.4952 42.5601 49.0318C42.5731 49.7218 42.4904 50.4742 42.5957 51.1785C42.6558 51.5807 43.4764 51.9636 43.4482 52.3695C43.3705 53.4876 43.5299 54.0161 43.5985 55.1186C43.6316 55.6492 42.6624 55.9809 42.3551 56.415C42.1339 56.7273 41.9994 57.3324 42.1796 57.6703C42.3495 57.9887 42.6547 57.8269 42.7513 58.175C42.888 58.6675 42.8995 59.0831 42.6509 59.5305C42.4906 59.8182 41.8997 59.7804 41.8436 60.1049C41.6865 61.0151 42.2048 61.9519 42.0743 62.8662C42.0353 63.1395 41.4232 63.0525 41.3822 63.3259C41.1772 64.6906 41.6143 66.1056 41.3822 67.4662C41.2947 67.9802 40.4965 68.2116 40.4596 68.7317C40.4389 69.0224 41.1292 68.8197 41.2669 69.0767C41.4846 69.4842 40.9382 70.3278 41.3822 70.4568C42.8579 70.8878 44.684 70.7762 46.1711 70.3872C47.0133 70.166 47.3698 68.9886 48.2371 68.9067C49.2818 68.8085 50.0527 69.4965 51.0854 69.6807C52.447 69.9254 53.9365 69.9695 55.2724 69.6111C56.0607 69.3992 56.5187 68.5648 57.3284 68.4573C60.8333 67.9873 64.0861 68.2761 67.6227 68.2576C70.9667 68.2392 75.2447 68.0713 77.7272 68.3416C79.1431 68.3887 77.6078 73.3839 78.1184 76.0223C78.2295 76.5967 78.7215 76.9182 79.0172 77.4495C79.4888 78.2973 79.6716 78.7283 78.4471 78.7232C76.1437 78.7119 73.813 78.889 71.3138 78.7836C70.8227 78.7631 70.8464 77.8191 70.391 77.6328C69.892 77.4291 69.3005 77.8744 68.7764 77.7485C67.991 77.5591 67.1059 76.8086 66.3043 76.7134C64.1669 76.4575 62.0129 76.9919 59.8808 76.6981C59.3969 76.6315 59.3302 75.6978 58.8428 75.6619C53.8587 75.2985 49.083 75.8206 44.0939 75.5493C43.0252 75.491 42.9278 75.1193 42.2495 74.9227C41.2897 74.6463 39.5733 74.5357 38.6693 74.9586C36.9844 75.7449 36.9897 77.2325 35.2344 77.8478H35.2346ZM95.2325 58.4136C94.1913 58.3828 94.122 56.715 94.2047 55.6922C94.2893 54.6459 95.6596 54.7008 96.1482 53.7714C96.5045 53.0948 95.9706 51.9052 96.3772 51.257C96.8145 50.559 98.0002 50.5849 98.4376 49.8869C98.6881 49.488 98.3144 48.7229 98.3257 48.2526C98.3534 47.139 98.6039 46.3186 98.5526 45.206C98.5259 44.6272 98.2846 43.5819 98.3945 43.013C98.5454 42.2359 99.0094 42.4245 99.2394 41.6667C99.5258 40.719 99.0494 39.6406 99.3533 38.6983C99.4745 38.3257 100.454 38.5127 100.384 38.1275C100.299 37.6586 99.4416 37.911 99.3564 37.4424C99.0967 36.0156 99.0823 34.3367 99.4683 32.9388C99.7096 32.0644 100.704 31.3953 100.957 30.5234C101.221 29.6098 100.662 28.5738 100.957 27.6692C101.156 27.055 102.173 26.9253 102.331 26.2992C102.7 24.8221 102.371 23.0104 102.756 21.5374C102.958 20.7644 103.362 19.8882 103.858 19.4037C104.156 19.1129 104.424 18.9015 104.563 18.4432C104.754 17.8154 104.285 17.2874 104.393 16.64C104.488 16.0673 104.927 15.6996 105.205 15.1903C105.557 14.5471 105.704 13.7322 106.042 13.0823C106.535 12.1321 107.198 11.3372 107.551 10.3263C107.815 9.57255 107.248 8.34314 107.586 7.61878C108.064 6.59311 109.3 6.6184 109.771 5.58925C110.152 4.7579 109.486 3.67132 109.886 2.84919C110.177 2.25025 110.833 1.98578 111.499 1.95937C111.988 1.94002 112.581 2.27727 112.748 2.73492C113.075 3.63169 112.779 4.70927 113.15 5.58925C113.8 7.13676 114.927 8.04889 115.552 9.60685C115.878 10.4192 115.526 11.5872 115.725 12.4394C115.996 13.5978 116.186 14.7661 116.57 15.8943C117.046 17.2992 117.729 18.6619 118.129 20.0887C118.483 21.3523 118.569 22.7233 118.842 24.0094C119.042 24.9479 119.407 25.8095 119.732 26.7106C119.87 27.0975 120.339 26.9993 120.451 27.3955C120.647 28.0955 120.058 28.8566 120.222 29.5648C120.417 30.411 121.331 31.2684 121.481 32.1237C121.725 33.5105 121.471 34.837 121.505 36.2447C121.535 37.5311 121.672 38.7258 121.841 39.9591C121.946 40.718 122.367 41.8002 122.387 42.3518C122.457 44.4066 122.549 46.4296 122.571 48.4867C122.606 51.4932 122.606 54.7073 122.455 57.7081C122.438 58.0583 122.019 58.2375 121.896 58.5661C121.429 59.8101 121.038 60.4981 120.738 61.7932C120.58 62.4761 120.575 63.2112 120.28 63.848C120.099 64.2391 119.293 64.5596 119.157 64.9681C118.854 65.8772 119.226 66.7915 119.159 67.9259C119.102 68.9027 118.697 69.4637 118.289 70.3718C118.01 70.9923 117.556 71.9598 117.384 72.6068C117.196 73.3092 117.534 74.0791 117.327 74.7763C117.219 75.1408 116.72 75.3169 116.641 75.6896C116.442 76.6202 116.812 77.6359 116.526 78.543C116.364 79.057 116.252 78.9822 115.761 79.2033C115.412 79.359 114.496 79.5361 114.444 79.1573C114.222 77.5683 114.67 76.4646 114.418 74.8787C114.122 73.0236 113.344 71.8953 112.875 70.0749C112.647 69.1914 113.055 67.5942 112.634 66.7843C111.876 65.3254 109.45 64.7357 109.556 63.0965C109.657 61.5106 110.608 60.4786 111.576 59.1886C112.237 58.305 112.668 56.8625 113.079 55.856C113.382 55.1139 113.559 54.2445 113.572 53.5125C113.593 52.4199 113.296 51.9443 112.466 51.2648C110.733 49.8446 107.933 48.546 105.776 47.5002C105.46 47.3469 105.089 47.9486 105.089 48.2994C105.089 48.6502 105.501 48.923 105.542 49.2708C105.662 50.2939 105.041 51.3554 105.485 52.2845C105.954 53.2663 107.805 53.552 107.531 54.6042C107.347 55.3088 107.173 55.5571 106.574 55.9011C106.21 56.1099 105.807 56.0956 105.382 56.1151C104.107 56.1734 102.796 55.7229 101.564 55.983C100.226 56.2656 99.0289 56.8819 97.7929 57.4962C96.9747 57.9037 96.138 58.4412 95.2325 58.4136V58.4136ZM106.509 42.4519C106.498 41.4448 106.473 40.4536 106.475 39.463C106.477 38.5884 106.499 37.7139 106.567 36.8288C106.613 36.2538 107.14 35.8149 107.208 35.2424C107.322 34.2957 106.739 33.1595 107.005 32.2492C107.111 31.8797 108.051 32.2502 108.263 31.9396C108.333 31.8378 108.476 31.2452 108.713 30.7398C108.856 30.4367 109.152 30.1646 109.152 30.0485C109.152 29.8792 109.141 28.6773 109.268 27.636C109.342 27.0315 109.436 26.5211 109.528 26.5171C109.62 26.513 109.712 27.0141 110.033 27.431C110.403 27.9107 110.528 28.3865 110.851 28.8938C111.042 29.1931 111.248 29.5457 111.563 29.6677C111.964 29.8233 112.445 29.6043 112.844 29.7651C113.143 29.8851 113.216 30.3527 113.485 30.539C113.666 30.665 114.083 30.425 114.125 30.6551C114.315 31.6917 114.151 33.079 114.316 34.1203C114.356 34.3699 114.91 34.2538 114.922 34.5072C115.006 36.3207 115.048 38.1371 115.042 39.9536C115.037 41.5564 114.995 43.1597 114.912 44.7612C114.889 45.2177 113.68 45.2496 113.342 44.9933C112.689 44.4972 112.275 43.9214 111.421 43.7164C111.065 43.6312 111.082 43.0686 110.745 42.9564C109.995 42.7074 109.05 42.6454 108.266 42.6454C107.755 42.6454 107.017 42.8254 106.509 42.7614C106.415 42.7497 106.51 42.5544 106.509 42.4519V42.4519ZM130.821 11.1942C130.823 12.2376 130.935 13.3681 130.938 14.4606C130.943 15.8666 130.841 17.1262 130.846 18.5435C130.851 20.0527 130.964 21.7198 130.964 23.1958C130.964 24.3955 130.744 26.7016 130.838 27.6981C130.957 28.9793 131.028 29.2012 132.784 29.2012C133.634 29.2012 134.786 28.3317 135.635 27.4529C136.216 26.8514 136.129 25.8131 136.352 25.3639C136.68 24.7038 137.242 24.0999 137.359 23.3335C137.509 22.3476 137.147 21.5338 137.806 20.9032C138.066 20.6538 138.311 17.8231 138.311 17.2002C138.311 16.3124 137.376 14.9958 136.301 13.8177C135.566 13.0117 134.684 12.2882 134.309 11.7361C133.62 10.7252 133.104 10.2816 132.288 10.0998C130.798 9.76779 130.82 9.90427 130.821 11.1942ZM122.951 66.7536C122.673 67.8491 123.519 68.2965 124.52 68.9415C125.519 69.5866 126.675 70.4302 127.763 71.3199C129.605 72.8249 130.858 75.5718 132.056 78.2768C132.673 77.6226 132.238 74.5736 132.584 72.7471C132.658 72.356 133.081 72.0734 133.121 71.6772C133.262 70.2572 133.297 68.8126 133.121 67.3966C133.054 66.8683 132.542 66.4823 132.405 65.9694C132.297 65.567 132.323 65.1278 132.405 64.7203C132.505 64.2227 132.896 63.7989 132.941 63.2931C133.077 61.8126 133.165 60.3035 132.941 58.8343C132.857 58.2794 132.005 57.9661 132.047 57.4071C132.083 56.9444 133.086 56.9781 133.121 56.5154C133.218 55.1893 132.757 53.9096 132.593 52.5908C132.221 49.626 132.005 46.6439 131.698 43.672C131.588 42.601 131.159 41.5226 131.341 40.4613C131.9 39.0136 132.411 37.5265 132.95 36.3586C133.213 36.0144 133.56 36.6868 133.827 37.0277C134.699 38.1377 135.857 39.5114 136.107 40.8985C136.414 42.5994 135.49 44.1042 135.687 45.8215C135.745 46.3226 136.519 46.2327 136.698 46.7045C137.552 48.9583 138.246 51.2884 138.666 53.6612C139.144 56.3649 139.298 59.122 139.381 61.8669C139.417 63.0607 139.366 64.2893 139.023 65.4339C138.534 67.069 137.516 68.3723 137.011 69.9521C136.482 71.6045 136.312 72.098 138.065 72.097C138.759 72.096 139.569 72.1236 140.105 72.3908C141.54 73.1065 142.132 74.7569 143.495 75.6015C143.789 75.7838 144.174 76.0367 144.58 76.2629C146.512 77.342 146.725 76.5967 147.127 74.9094C147.658 72.6785 147.792 70.6667 148.136 68.4665C148.312 67.3505 148.275 66.2059 148.324 65.0776C148.394 63.4692 148.515 61.869 148.432 60.2605C148.394 59.5101 148.398 58.689 147.904 58.1207C147.533 57.6938 146.44 58.13 146.294 57.5853C146.094 56.8389 147.174 56.2174 147.189 55.4445C146.893 53.359 146.622 51.4928 146.587 49.4373C146.547 47.014 146.026 48.2338 145.221 47.2839C144.734 46.71 144.582 46.2039 144.506 45.4558C144.281 43.2664 144.599 40.8436 144.264 38.6686C144.114 37.6959 143.658 36.7366 143.012 35.9929C142.778 35.7233 142.349 36.1244 142.189 35.8054C141.921 35.2711 142.744 34.9053 142.43 34.3964C141.7 33.2143 140.173 32.312 139.015 31.5424C138.668 31.3118 138.057 31.8367 137.762 31.5424C137.467 31.2482 137.475 30.3448 137.762 30.0439C139.825 29.7461 140.886 28.7777 141.893 27.6182C143.26 26.0463 143.928 24.294 144.613 22.3294C144.929 21.4238 144.524 20.3655 144.63 19.4128C144.826 17.6499 145.753 16.049 145.444 14.3022C144.996 11.762 143.74 9.48562 142.297 7.34552C141.495 6.15747 140.25 5.10447 138.952 4.4915C137.869 3.98 136.962 4.40795 135.813 4.07245C134.481 3.68401 133.414 2.94122 132.056 2.66356C130.999 2.44733 129.889 2.88737 128.837 2.64544C128.18 2.49432 128.073 1.75779 127.406 1.65561C126.946 1.58496 126.476 2.24962 126.011 2.28873C122.803 2.55974 120.17 1.94002 116.977 2.3601C116.501 2.42286 116.636 2.95269 117.032 3.22523C117.622 3.63261 118.519 3.43143 119.178 3.71574C120.361 4.22684 121.271 4.91394 122.147 5.85627C122.873 6.63561 123.169 7.50248 123.828 8.71028C124.099 9.20541 124.878 8.25468 125.439 8.17512C126.146 8.07438 126.638 8.05544 127.084 8.6123C127.486 9.11182 126.655 9.77751 126.182 10.2084C125.224 11.0791 124.572 11.5402 123.725 12.1183C123.146 12.514 122.121 12.8693 121.69 13.6423C120.736 15.3572 121.868 17.3075 122.236 19.2345C122.37 19.9374 122.524 20.6244 122.684 21.3216C123.204 23.5882 123.029 25.4747 123.345 27.7784C123.448 28.523 123.978 29.1718 124.061 29.9189C124.159 30.807 123.999 31.4612 124.133 32.3448C124.188 32.7209 124.497 33.1197 124.598 33.4865C125.043 35.1176 125.436 37.1663 125.492 38.8559C125.675 44.3827 125.346 49.7972 125.625 55.3206C125.651 55.8233 126.408 56.0219 126.511 56.5154C126.673 57.2802 126.161 58.1586 125.904 58.8968C124.845 61.9191 123.604 64.1808 122.951 66.7536V66.7536Z" fill="black"/>
<path d="M172.246 2.76997H172.087V3.56201H172.309C172.466 3.56201 172.587 3.52843 172.668 3.45973C172.749 3.39103 172.79 3.29152 172.79 3.15975C172.79 3.02522 172.747 2.92704 172.66 2.86397C172.573 2.8009 172.435 2.76997 172.246 2.76997V2.76997ZM172.406 2.11677C172.884 2.11677 173.247 2.20084 173.498 2.36762C173.749 2.5345 173.874 2.77837 173.874 3.09801C173.874 3.3125 173.815 3.49618 173.697 3.65313C173.579 3.80886 173.413 3.92373 173.198 3.99806L173.932 5.45466H172.782L172.19 4.17476H172.087V5.45466H171.034V2.11677H172.406V2.11677ZM174.834 3.85504C174.834 3.527 174.773 3.21443 174.649 2.91578C174.525 2.61713 174.35 2.35359 174.119 2.12374C173.88 1.88539 173.613 1.70592 173.318 1.58399C173.023 1.46205 172.709 1.40174 172.375 1.40174C172.036 1.40174 171.721 1.46061 171.427 1.57978C171.133 1.69886 170.873 1.87556 170.646 2.10694C170.41 2.34519 170.228 2.61436 170.103 2.91578C169.976 3.21719 169.913 3.52987 169.913 3.85504C169.913 4.18174 169.974 4.49298 170.1 4.78866C170.225 5.08598 170.403 5.35093 170.636 5.58365C170.873 5.81913 171.139 5.99862 171.435 6.12332C171.732 6.24813 172.044 6.30985 172.375 6.30985C172.701 6.30985 173.014 6.24669 173.314 6.12056C173.615 5.99575 173.886 5.81361 174.127 5.57526C174.359 5.34818 174.537 5.08874 174.656 4.79716C174.776 4.50557 174.834 4.1929 174.834 3.85504V3.85504ZM172.366 0.769531C172.79 0.769531 173.193 0.846612 173.57 0.999367C173.946 1.15212 174.282 1.37645 174.576 1.66947C174.861 1.95686 175.081 2.28909 175.237 2.66627C175.391 3.04478 175.469 3.44151 175.469 3.8579C175.469 4.27982 175.393 4.67379 175.241 5.04257C175.088 5.41125 174.867 5.73652 174.576 6.01828C174.271 6.31396 173.928 6.54114 173.547 6.7024C173.166 6.86222 172.771 6.94208 172.366 6.94208C171.957 6.94208 171.568 6.86354 171.196 6.70802C170.826 6.5523 170.492 6.32522 170.193 6.02667C169.896 5.73365 169.669 5.39998 169.513 5.02843C169.357 4.65555 169.279 4.26579 169.279 3.8579C169.279 3.44437 169.357 3.04898 169.515 2.67036C169.674 2.29339 169.901 1.95409 170.201 1.65268C170.484 1.36529 170.81 1.1466 171.181 0.99518C171.55 0.84519 171.945 0.769531 172.366 0.769531V0.769531Z" fill="#0566B0"/>
</g>
<defs>
<clipPath id="clip0_321_279">
<rect width="175" height="91.8622" fill="white" transform="translate(0.46875 0.616211)"/>
</clipPath>
</defs>
</svg>
