<svg width="175" height="175" viewBox="0 0 175 175" fill="none" xmlns="http://www.w3.org/2000/svg">
<path d="M175 87.5C175 110.706 165.781 132.962 149.372 149.372C132.962 165.781 110.706 175 87.5 175C64.2935 175 42.0376 165.781 25.6282 149.372C9.21872 132.962 0 110.706 0 87.5C0 64.2935 9.21872 42.0376 25.6282 25.6281C42.0376 9.21872 64.2935 0 87.5 0C98.9906 0 110.369 2.26325 120.985 6.66054C131.601 11.0578 141.247 17.503 149.372 25.6281C157.497 33.7533 163.942 43.3992 168.339 54.0152C172.737 64.6312 175 76.0093 175 87.5Z" fill="black"/>
<path d="M8.32677 75.5479C7.22775 75.5479 6.23607 76.4389 6.23607 76.4389C5.25306 77.179 3.05653 80.5257 2.08668 82.0671C1.78752 82.5576 1.54102 82.9091 1.54102 83.8773C1.54102 87.0621 2.24676 93.6082 3.41881 99.2316C5.69001 109.219 9.37243 119.886 15.7934 130.221L17.0227 132.292C17.8045 133.609 18.3339 133.087 18.8633 132.85L22.7354 130.961C25.4433 129.597 26.7835 126.947 26.7835 123.288C26.7835 119.51 25.5275 115.931 23.4284 111.157C18.9708 101.972 15.8372 93.1656 13.4316 83.0504C12.9008 80.8689 12.1033 78.7754 11.0065 77.2222C10.3285 76.341 9.63475 75.5482 8.32678 75.5482L8.32677 75.5479ZM6.97938 85.4633C7.21522 85.4587 7.40518 85.6125 7.61818 85.8402C8.63975 87.1621 9.35912 92.4514 10.3735 95.8469C11.8528 101.182 14.02 107.141 15.8035 111.192C17.3353 114.428 18.3968 116.901 18.7923 118.161C18.7923 118.161 19.1281 119.128 19.1281 119.864C19.1281 120.652 18.8555 121.555 17.9768 122.105L17.0024 122.708C16.8057 122.826 16.6643 122.864 16.5737 122.651C11.201 112.656 6.91627 100.611 5.0398 88.2943C4.9808 87.7969 4.9045 87.3152 5.21674 87.0116L6.06529 86.0357C6.46182 85.6301 6.74358 85.4674 6.97938 85.4629V85.4633Z" fill="white"/>
<path d="M25.5597 58.0137C25.3311 58.0213 25.0681 58.159 24.7928 58.4167L20.7616 61.7825C20.0866 62.3627 19.7773 62.5701 19.7773 64.1444C19.7773 83.4084 24.2705 105.317 31.8986 123.727C32.4797 125.221 32.9537 125.615 34.078 125.126L39.4714 122.235C40.1261 121.895 40.3194 121.612 40.3194 121.175C40.3194 120.876 40.218 120.573 40.1108 120.306C40.1108 120.306 38.1453 115.694 35.6946 108.567C35.5779 108.236 35.5767 108.19 35.7995 108.061L43.3721 103.404C43.521 103.318 43.6357 103.294 43.7325 103.4L52.505 113.809C53.1142 114.454 53.8135 114.362 54.6636 113.899L62.1827 109.727C62.9906 109.249 63.1921 108.894 63.1921 108.383C63.1921 107.76 62.6145 107.228 62.6145 107.228C57.9124 102.087 36.5827 79.6082 26.121 58.391C25.9825 58.1289 25.788 58.0065 25.5593 58.0142L25.5597 58.0137ZM27.3478 77.7129C27.4069 77.7129 27.4482 77.8247 27.472 77.8692C29.1605 81.289 33.0556 88.495 36.5309 93.7031C36.6547 93.9265 36.7228 94.0204 36.4799 94.1736L32.5467 96.7735C32.1889 97.0284 32.0787 97.0734 31.9283 96.5262C30.0134 90.2349 28.6921 84.9103 27.2982 78.2424C27.2982 78.2424 27.2606 78.0755 27.2606 77.9726C27.2606 77.8595 27.2552 77.7132 27.3478 77.7132L27.3478 77.7129Z" fill="white"/>
<path d="M32.1152 53.3639C32.1152 52.7826 32.4529 52.453 32.8851 52.1412L39.8294 47.2164C40.3414 46.8286 41.0307 46.4923 41.4665 47.1543C47.7761 57.0161 55.0033 67.3754 61.8087 75.8311C58.1976 64.4473 54.7433 53.3519 51.8873 41.5163C51.5665 40.1965 51.308 39.5417 52.8417 38.7211L60.4177 34.2285C60.7261 34.0432 61.058 33.8242 61.4342 33.8242C62.0163 33.8242 62.2567 34.1136 62.4235 34.7832C67.4063 53.0994 73.8014 75.2274 80.9163 97.0763C80.9163 97.0763 81.1322 97.6783 81.1322 98.1012C81.1322 98.403 81.0534 99.0643 80.1968 99.5457L72.9409 103.657C72.4791 103.934 72.1319 104.173 71.5498 104.173C70.614 104.173 70.3052 103.678 69.703 103.01C54.4895 85.8375 43.6812 73.0297 32.6102 54.646C32.6102 54.646 32.1155 53.8492 32.1155 53.3634L32.1152 53.3639Z" fill="white"/>
<path d="M66.483 32.4823C66.2406 32.0991 66.1172 31.9196 66.1172 31.6252C66.1172 31.1503 66.3449 30.8891 67.0347 30.5284C77.2881 25.1243 81.3274 23.1343 89.7797 19.4429C90.9267 18.9409 91.3901 18.9893 91.9853 19.5295L96.585 24.3033C96.8022 24.5239 96.8722 24.7241 96.8722 24.9392C96.8722 25.3516 96.7689 25.3813 95.6268 25.9434C90.5797 28.1826 86.0811 30.4584 81.4915 32.7283C81.2522 32.8468 81.2119 32.9188 81.4435 33.2558L89.6108 44.842C89.8098 45.1725 89.9465 45.1381 90.2224 44.9858L103.288 38.2968C104.176 37.8399 105.035 37.9626 105.627 38.7584L110.49 45.5075C110.929 46.1311 110.868 46.8182 110.028 47.2637L96.441 54.4931C96.1011 54.6554 96.0761 54.7218 96.3057 55.106L105.194 69.6011C105.396 69.9441 105.507 69.9 105.836 69.709L121.525 60.7401C122.339 60.2664 123.07 60.5075 123.551 61.3327L128.291 69.58C128.725 70.3761 128.779 71.1655 127.741 71.7804L101.496 87.2598C100.619 87.7124 99.6829 87.6267 99.0912 86.5165C88.7988 68.1322 73.541 43.2765 66.4836 32.4827L66.483 32.4823Z" fill="white"/>
<path d="M117.352 10.7744C115.331 10.7744 109.381 11.4353 109.381 15.6532C109.381 20.405 116.616 26.5568 126.333 31.3772C126.543 31.481 126.661 31.6008 126.646 31.7755C126.581 32.8458 126.451 34.02 126.451 34.9862C126.451 41.7831 128.619 46.4951 132.304 51.5259C132.803 52.1666 135.255 55.2594 137.896 57.0501C140.239 58.5017 142.905 59.9775 146.002 59.9775C151.234 59.9775 154.615 55.3951 154.986 50.951C154.991 50.8667 155.04 50.4857 155.074 50.3009C155.109 50.1342 155.21 50.2153 155.26 50.2679C156.033 50.9873 156.815 51.7089 157.677 52.4506C158.18 52.8686 158.542 52.9789 159.138 52.5679L162.509 50.3861C163.342 49.8405 162.808 48.8606 162.181 48.2519C159.935 45.9539 157.616 43.8364 154.891 41.5979C154.553 41.3111 154.381 41.1868 154.328 40.7168L153.839 37.2671C153.481 34.9543 152.782 32.4307 151.173 31.8521L148.883 30.887C147.955 30.4734 146.796 30.005 146.325 30.005C145.841 30.005 145.798 30.2796 145.933 30.833L146.993 35.2429C147.047 35.4576 146.948 35.5766 146.743 35.4314C143.468 33.1517 139.821 30.7658 136.177 28.6101C136.523 16.4888 124.328 10.7748 117.352 10.7748L117.352 10.7744ZM121.202 16.2974C123.867 16.2974 127.477 19.3386 127.592 23.5282C127.597 23.7929 127.595 23.9421 127.338 23.8078C124.857 22.4969 119.659 19.6559 119.659 17.4167C119.659 16.6924 120.134 16.2977 121.202 16.2977L121.202 16.2974ZM136.418 36.9485C136.45 36.9505 136.485 36.9627 136.522 36.9852C140.458 39.3493 144.652 42.1309 148.056 44.6213C148.179 44.7034 148.191 44.7816 148.188 45.0346C148.188 47.8243 146.952 49.383 145.154 49.383C141.405 49.383 136.264 43.4434 136.264 37.1797C136.264 37.0241 136.324 36.9417 136.418 36.9482L136.418 36.9485Z" fill="white"/>
<path d="M25.9135 134.977C25.2647 134.985 24.5461 135.043 24.0352 135.273L20.8806 136.625C20.4757 136.808 20.1679 136.951 20.6432 137.609C25.5405 144.373 33.7097 153.867 45.4672 161.605C46.6069 162.351 47.2872 162.861 48.243 162.861C48.8105 162.861 51.1897 162.689 51.1897 162.689C53.6364 162.516 54.2114 161.724 54.2114 161.004C54.2104 160.195 53.531 159.028 52.5925 158.037C50.5785 156 49.1182 154.766 46.4266 152.545C43.912 150.458 42.3239 149.815 40.5142 149.099C40.5574 147.73 40.1553 146.43 38.7101 144.64C36.4329 141.8 34.2295 139.078 31.0184 136.871C29.1468 135.584 27.5169 134.977 25.9134 134.977L25.9135 134.977ZM28.7135 140.863C29.3295 140.863 30.0277 141.111 30.7619 141.715C32.654 143.255 34.2091 145.325 34.7157 146.221C34.7157 146.221 35.0675 146.831 35.0675 147.159C35.0675 147.526 34.8881 147.739 34.3379 147.903L33.4604 148.185C33.2596 148.252 33.2301 148.19 33.1183 148.089C31.0632 145.984 29.069 143.657 27.3514 141.53C27.2118 141.35 27.2008 141.221 27.3793 141.163C27.8623 140.994 28.2261 140.863 28.7134 140.863L28.7135 140.863ZM39.3512 152.35C40.1258 152.35 40.7902 152.61 41.3841 152.974C43.1728 154.11 45.0727 155.802 46.7927 157.364C47.0711 157.624 47.4942 158.157 47.4942 158.476C47.4942 158.883 46.6694 159.126 45.7732 159.126C45.5653 159.126 45.3287 158.924 45.1317 158.788C43.2768 157.436 39.5544 154.321 37.9268 152.791C37.814 152.7 37.7995 152.612 37.9508 152.575C37.9508 152.575 38.7673 152.35 39.3509 152.35L39.3512 152.35Z" fill="white"/>
<path d="M32.0824 132.701C31.8792 132.418 31.7676 132.259 31.7676 131.979C31.7676 131.712 31.9847 131.519 32.3102 131.365C33.5317 130.799 34.4804 130.321 35.5422 129.806C35.5422 129.806 35.88 129.617 36.1359 129.617C36.5547 129.617 36.8312 129.973 37.1912 130.517C43.8518 140.023 50.1023 147.11 58.0586 154.237C58.959 154.978 60.0385 155.652 61.3805 155.652C62.6384 155.652 63.3648 155.075 63.3648 154.484C63.3648 153.761 62.0595 152.591 61.2066 151.804C53.3634 144.317 47.2353 136.848 41.465 128.516C41.2424 128.18 40.9732 127.809 40.9732 127.482C40.9732 127.068 41.3308 126.871 41.766 126.656L45.4197 124.787C45.7759 124.587 46.0655 124.405 46.4513 124.405C46.9682 124.405 47.2803 124.818 47.7232 125.524C54.3785 135.199 60.3174 142.639 68.2618 150.467C69.8026 151.973 71.145 153.614 71.145 155.62C71.145 158.826 67.6609 160.028 64.4203 160.028C59.7105 160.028 55.0208 157.776 52.1158 155.065C43.5233 147.488 37.7953 140.731 32.0826 132.702L32.0824 132.701Z" fill="white"/>
<path d="M53.8633 125.459C53.8633 119.061 60.1987 115.232 65.7736 115.232C70.9362 115.232 75.1612 117.873 76.9953 120.647L78.7462 123.194C79.0366 123.618 79.1839 123.863 79.1839 124.147C79.1839 124.465 79.0652 124.711 78.3156 125.078L72.9359 127.821C72.66 127.949 72.3936 128.141 71.9747 128.141C71.4267 128.141 71.0666 127.63 70.7172 127.114L69.9757 126.049C69.0744 124.819 67.6287 123.751 66.134 123.751C64.547 123.751 62.4217 124.917 62.4217 126.553C62.4217 127.759 63.1198 128.836 63.9954 130.147C65.4277 132.046 66.164 133.066 68.2767 133.066C70.609 133.066 75.5815 132.23 78.5963 132.23C83.297 132.23 85.8104 134.218 88.056 136.538L89.8138 138.598C91.4165 140.533 93.1016 143.323 93.1016 145.85C93.1016 150.94 85.8577 153.768 81.1033 153.768C76.5841 153.768 73.3276 152.428 70.4762 149.554L69.4113 148.474C69.2472 148.285 69.1429 148.168 69.1429 147.953C69.1429 147.743 69.1698 147.607 69.7285 147.378L74.3007 145.459C74.3007 145.459 74.9323 145.18 75.2801 145.18C75.8635 145.18 76.2111 145.631 76.6793 146.159C77.816 147.485 78.8132 148.269 80.5005 148.269C82.2187 148.269 84.6336 146.945 84.6336 145.981C84.6336 145.198 83.6554 143.81 82.7553 142.713C80.9706 140.599 79.7885 139.467 78.1111 139.467C76.8845 139.467 71.6486 140.079 69.3445 140.079C64.5398 140.079 61.1654 138.851 57.0414 133.645C55.2396 131.259 53.8638 128.697 53.8638 125.459L53.8633 125.459Z" fill="white"/>
<path d="M72.2254 111.953C72.0434 111.651 71.8926 111.398 71.8926 111.066C71.8926 110.652 72.1096 110.414 72.5402 110.152L94.3785 97.8074C94.3785 97.8074 94.8636 97.5137 95.215 97.5137C95.6878 97.5137 95.9534 97.8359 96.2973 98.4427L99.3314 103.669C99.4543 103.882 99.5707 104.126 99.5707 104.354C99.5707 104.829 99.3369 105.013 98.6718 105.38L92.4051 108.961C92.1854 109.09 92.1549 109.191 92.3542 109.508C98.6224 119.877 104.512 129.441 111.209 139.497C111.399 139.762 111.447 139.942 111.447 140.129C111.447 140.433 111.19 140.696 110.713 140.943L105.439 143.732C105.163 143.874 104.985 143.953 104.635 143.953C104.228 143.953 104.01 143.695 103.814 143.432C96.6927 133.962 89.9541 123.831 83.873 114.242C83.6511 113.878 83.5528 113.915 83.2224 114.095L77.1331 117.389C76.8551 117.55 76.7418 117.628 76.3656 117.64C75.9054 117.64 75.658 117.396 75.2863 116.795L72.2254 111.953Z" fill="white"/>
<path d="M98.1664 97.0908C98.0248 96.823 97.9258 96.6237 97.9258 96.3626C97.9258 95.9327 98.1699 95.6199 98.9098 95.1759C105.282 91.4825 111.68 87.7249 118.116 83.8715C118.436 83.6665 118.588 83.6172 118.811 83.6172C119.218 83.6172 119.554 83.8732 119.846 84.4733L122.62 89.7707C123.14 90.6456 122.682 91.1226 122.228 91.4156L110.653 98.3963C110.442 98.5138 110.397 98.6171 110.556 98.8921L116.049 109.052C116.159 109.249 116.304 109.228 116.534 109.086L126.032 103.206C126.32 103.033 126.991 102.822 127.342 103.486L129.78 108.678C130.072 109.327 129.859 109.829 129.428 110.077L119.925 116.054C119.775 116.14 119.788 116.25 119.877 116.443L124.281 125.138C124.417 125.394 124.461 125.409 124.738 125.245C128.205 123.097 131.614 120.915 134.923 118.676C135.38 118.398 135.822 118.501 136 118.945L137.7 123.469C137.843 123.886 138.017 124.39 137.03 125.033C131.429 128.838 126.383 131.967 120.998 135.125C120.304 135.518 119.968 135.456 119.535 134.679L98.1664 97.0908Z" fill="white"/>
<path d="M138.694 73.0938C136.443 73.0938 134.578 73.966 132.609 75.0525L123.149 80.8287C122.112 81.4211 122.24 81.9895 122.597 82.6778C129.3 95.364 135.143 107.92 140.016 121.864C140.265 122.63 140.828 122.469 141.335 122.084L145.728 118.906C146.399 118.413 146.491 117.954 146.309 117.282C144.471 110.817 142.613 105.951 141.548 103.069C141.435 102.775 141.369 102.605 141.584 102.467L143.086 101.439C143.245 101.317 143.332 101.302 143.494 101.475C148.555 107.788 149.319 109.067 152.229 113.198C152.464 113.494 152.711 113.537 153.135 113.201L157.26 109.814C157.613 109.522 157.972 108.942 157.565 108.293C154.743 103.758 152.654 100.57 148.751 95.6336C148.642 95.5308 148.635 95.4424 148.712 95.2987C149.668 93.3199 150.103 91.2572 150.103 89.178C150.103 86.3932 149.247 83.5596 148.254 81.266C146.339 76.9624 143.153 73.0941 138.694 73.0941L138.694 73.0938ZM138.409 81.9397C139.679 81.9397 140.45 83.0008 141.394 84.6C142.487 86.4571 143.43 89.299 143.43 90.9502C143.43 92.2879 142.496 93.3882 140.964 94.4047L139.027 95.6933C138.827 95.8556 138.728 95.8746 138.64 95.6873L133.63 84.6349C133.506 84.3677 133.567 84.2957 133.762 84.1793L136.054 82.731C136.565 82.4154 137.635 81.9398 138.409 81.9398L138.409 81.9397Z" fill="white"/>
<path d="M146.06 68.305C145.587 67.376 145.666 66.8545 146.348 66.417C147.637 65.6144 148.796 64.8695 150.15 63.9656C150.536 63.7272 151.119 63.3452 151.649 64.493L153.948 69.6089C154.326 70.402 154.285 70.7113 153.916 71.7395L151.889 77.7152C151.684 78.2247 151.505 78.7896 151.117 78.7896C150.739 78.7896 150.416 78.0793 150.107 77.2639C148.902 74.4636 147.521 71.2778 146.06 68.3049L146.06 68.305Z" fill="white"/>
<path d="M156.803 64.6677C156.803 59.2186 159.609 56.2861 162.095 56.2861C164.683 56.2861 167.3 59.0024 168.709 62.8408L169.545 65.2494C169.739 65.7856 169.734 66.1829 169.383 66.4841L167.428 68.2403C167.283 68.3678 167.164 68.5013 166.933 68.5013C166.66 68.5013 166.531 68.1657 166.415 67.8327C165.706 65.6015 164.786 63.8438 163.734 63.8438C163.104 63.8438 162.118 64.4899 162.118 66.1514C162.118 67.436 162.56 68.8457 163.24 70.4946C164.12 72.7812 164.413 73.1141 165.593 73.1141C166.447 73.1141 167.832 73.0124 168.612 73.0124C170.772 73.0124 171.941 74.4352 172.885 77.9801C173.562 80.6739 174.006 83.5398 174.006 86.3233C174.006 94.9689 170.116 98.575 168.142 98.575C165.996 98.575 164.756 95.8488 164.25 93.2225L163.854 91.4063C163.739 90.8149 163.802 90.2829 164.172 89.9379L166.936 87.3665C167.403 86.8899 167.705 86.9652 167.836 87.7621C168.328 90.4499 168.588 91.0856 169.242 91.0856C169.786 91.0856 171.177 89.9507 171.177 87.7488C171.177 86.7843 170.885 84.4654 170.566 83.0574C170.237 81.8616 170.027 80.565 168.968 80.565C168.418 80.565 166.12 80.7939 165.462 80.7939C162.804 80.7939 161.464 79.0635 160.353 77.1651C158.466 73.5301 156.803 68.7279 156.803 64.6681L156.803 64.6677Z" fill="white"/>
</svg>
