<svg width="332" height="503" viewBox="0 0 332 503" fill="none" xmlns="http://www.w3.org/2000/svg">
<path d="M191.978 127.5C191.978 127.5 143.478 102.5 83.9782 119C107.478 101.5 160.978 88.9995 166.478 1C167.478 5.99997 191.978 127.5 191.978 127.5Z" fill="black"/>
<path d="M331.478 501C331.478 501 60.4778 505 7.97824 311C-27.5222 140 83.9782 119 83.9782 119M83.9782 119C143.478 102.5 191.978 127.5 191.978 127.5C191.978 127.5 167.478 5.99997 166.478 1C160.978 88.9995 107.478 101.5 83.9782 119Z" stroke="black" stroke-width="2"/>
<path d="M192 128C270.501 163.5 336.501 335.5 314 367.5C273.5 387 193.501 164.5 192 128Z" stroke="black" stroke-width="2"/>
</svg>
