<?xml version="1.0" ?><svg id="Capa_1" style="enable-background:new 0 0 512 512;" version="1.1" viewBox="0 0 512 512" xml:space="preserve" xmlns="http://www.w3.org/2000/svg" xmlns:xlink="http://www.w3.org/1999/xlink"><g><g><path d="M216,386c-5.52,0-10,4.48-10,10c0,5.52,4.48,10,10,10s10-4.48,10-10C226,390.48,221.52,386,216,386z"/></g></g><g><g><path d="M256,100c-5.514,0-10-4.486-10-10s4.486-10,10-10c3.542,0,7.283,1.808,10.816,5.227c3.97,3.841,10.3,3.735,14.14-0.232    c3.84-3.97,3.736-10.3-0.233-14.141c-5.075-4.911-10.153-7.688-14.724-9.205V50c0-5.522-4.477-10-10-10s-10,4.478-10,10v11.72    c-11.639,4.128-20,15.243-20,28.28c0,16.542,13.458,30,30,30c5.514,0,10,4.486,10,10s-4.486,10-10,10    c-4.273,0-8.885-2.687-12.986-7.564c-3.554-4.229-9.862-4.774-14.089-1.22c-4.228,3.554-4.773,9.862-1.219,14.089    c5.346,6.36,11.632,10.791,18.294,13.025V170c0,5.522,4.477,10,10,10c5.523,0,10.001-4.478,10.001-10v-11.72    c11.639-4.128,20-15.243,20-28.28C286,113.458,272.542,100,256,100z"/></g></g><g><g><path d="M366,306h-50.027c6.292-8.363,10.027-18.752,10.027-30v-20c0-5.522-4.477-10-10-10h-20c-11.247,0-21.637,3.735-30,10.027    V219.54c55.985-5.069,100-52.258,100-109.541C366,49.346,316.654,0,256,0S146,49.346,146,110c0,57.283,44.015,104.471,100,109.541    v36.487C237.637,249.735,227.247,246,216,246h-20c-5.523,0-10,4.478-10,10v20c0,11.248,3.735,21.637,10.027,30H146    c-8.01,0-15.543,3.121-21.211,8.79C119.121,320.458,116,327.99,116,336c0,16.542,13.458,30,30,30h1.27l16.38,120.237    c2.087,14.688,14.856,25.763,29.7,25.763h125.3c14.844,0,27.613-11.075,29.709-25.82L364.73,366H366    c8.01,0,15.543-3.121,21.211-8.79c5.667-5.668,8.789-13.2,8.789-21.21C396,319.458,382.542,306,366,306z M296,266h10v10    c0,16.542-13.458,30-30,30h-10v-10C266,279.458,279.458,266,296,266z M166,110c0-49.626,40.374-90,90-90c49.626,0,90,40.374,90,90    s-40.374,90-90,90C206.374,200,166,159.626,166,110z M206,266h10c16.542,0,30,13.458,30,30v10h-10c-16.542,0-30-13.458-30-30V266z     M328.55,483.423c-0.695,4.89-4.951,8.577-9.9,8.577h-125.3c-4.949,0-9.205-3.688-9.892-8.52L167.455,366h177.09L328.55,483.423z     M373.069,343.068c-1.89,1.891-4.4,2.932-7.069,2.932H146c-5.514,0-10-4.486-10-10c0-2.668,1.041-5.179,2.931-7.068    c1.89-1.891,4.4-2.932,7.069-2.932h90h20h20h90c5.514,0,10,4.486,10,10C376,338.668,374.959,341.179,373.069,343.068z"/></g></g><g><g><path d="M316,386h-60c-5.523,0-10,4.478-10,10c0,5.522,4.477,10,10,10h60c5.523,0,10-4.478,10-10C326,390.478,321.523,386,316,386    z"/></g></g><g/><g/><g/><g/><g/><g/><g/><g/><g/><g/><g/><g/><g/><g/><g/></svg>