<?xml version="1.0" encoding="iso-8859-1"?>
<!-- Generator: Adobe Illustrator 19.1.0, SVG Export Plug-In . SVG Version: 6.00 Build 0)  -->
<svg version="1.1" id="Capa_1" xmlns="http://www.w3.org/2000/svg" xmlns:xlink="http://www.w3.org/1999/xlink" x="0px" y="0px"
	 viewBox="0 0 333.516 333.516" style="enable-background:new 0 0 333.516 333.516;" xml:space="preserve">
<g>
	<path d="M332.679,171.266c-1.375-1.517-5.495-3.548-10.174-5.013c-0.174-1.356-0.501-2.661-0.996-3.869
		c-1.6-3.869-4.737-6.279-8.824-6.78c-7.063-0.855-14.75,2.474-20.264,5.611c-11.125-38.818-43.645-71.055-87.096-84.629
		c3.175-6.677,5-14.107,5-21.986c0-28.374-23.092-51.466-51.473-51.466c-28.374,0-51.46,23.092-51.46,51.466
		c0,8.162,1.96,15.849,5.347,22.712c-14.75,4.884-28.67,11.935-40.714,20.964c-13.683-7.14-28.625-7.031-38.741,0.521l-5.154,3.843
		l16.993,22.764c-8.438,11.658-14.48,24.371-18.008,37.899h-7.179C8.946,163.304,0,172.25,0,183.246v57.43
		c0,10.996,8.946,19.942,19.936,19.942h28.439c8.336,10.508,18.451,19.718,30.155,27.449v26.864c0,8.136,5.913,14.756,13.181,14.756
		h24.493c7.269,0,13.181-6.62,13.181-14.756V309c18.779,3.863,37.918,4.216,57.533,0.656v5.977c0,8.136,5.913,14.75,13.181,14.75
		h24.493c7.269,0,13.181-6.613,13.181-14.75v-25.116c36.922-22.706,58.838-59.699,58.838-99.661c0-7.879-0.964-15.604-2.635-23.143
		c5.019-3.085,12.16-6.465,17.918-5.726c1.722,0.212,2.86,1.054,3.586,2.635c-3.953-0.566-7.539-0.341-9.473,1.273
		c-2.744,2.288-3.946,6.112-2.988,9.512c1.028,3.663,4.235,6.15,8.805,6.832c0.366,0.051,0.733,0.084,1.099,0.084
		c2.429,0,4.692-1.208,6.459-3.477c1.305-1.671,2.237-3.766,2.764-6.009c2.731,0.913,5.032,1.941,5.784,2.744
		c1.202,1.318,3.226,1.414,4.537,0.219C333.778,174.602,333.874,172.584,332.679,171.266z M158.852,15.994
		c21.299,0,38.619,17.32,38.619,38.612c0,7.944-2.416,15.334-6.543,21.472l-0.219,0.308c-0.174,0.257-0.373,0.488-0.553,0.739
		c-0.739,1.022-1.523,2.005-2.346,2.937c-0.219,0.257-0.45,0.501-0.675,0.752c-0.816,0.874-1.665,1.71-2.545,2.5
		c-0.199,0.174-0.392,0.36-0.591,0.533c-2.256,1.934-4.698,3.612-7.314,4.968c-0.09,0.051-0.18,0.09-0.27,0.135
		c-1.189,0.611-2.404,1.15-3.644,1.632c-0.27,0.109-0.546,0.199-0.823,0.302c-1.08,0.398-2.179,0.733-3.297,1.028
		c-0.347,0.09-0.688,0.186-1.041,0.27c-1.093,0.251-2.204,0.443-3.316,0.611c-0.36,0.051-0.701,0.122-1.06,0.161
		c-1.452,0.161-2.911,0.264-4.39,0.264c-1.465,0-2.918-0.096-4.364-0.264c-0.302-0.032-0.598-0.096-0.906-0.135
		c-1.17-0.161-2.327-0.366-3.477-0.636c-0.264-0.058-0.521-0.135-0.778-0.199c-1.208-0.315-2.41-0.668-3.586-1.099
		c-0.161-0.064-0.334-0.122-0.495-0.18c-5.495-2.095-10.508-5.431-14.589-9.788c-0.109-0.116-0.206-0.231-0.315-0.353
		c-0.919-0.996-1.78-2.05-2.59-3.156c-0.199-0.276-0.418-0.546-0.617-0.823l-0.347-0.476c-4.139-6.15-6.555-13.541-6.555-21.498
		C120.246,33.314,137.56,15.994,158.852,15.994z M228.018,281.358l-3.426,1.986l0.321,32.282c0,1.009-0.373,1.665-0.591,1.896
		l-23.876,0.084c-0.18-0.122-0.675-0.81-0.675-1.979v-21.961l-7.886,1.838c-23.047,5.36-45.553,4.878-67.295-0.823l-8.059-2.108
		v22.353c0,1.176-0.501,1.864-0.328,1.902l-24.133,0.084c-0.18-0.122-0.681-0.81-0.681-1.986l-0.013-27.867l1.163-5.366l-3.85-2.384
		c-12.744-7.911-23.516-17.667-32.012-28.985l-1.928-2.564H19.936c-3.901,0-7.082-3.175-7.082-7.089v-57.43
		c0-3.908,3.175-7.089,7.082-7.089h17.468l1.08-5.096c3.181-15.071,9.814-29.081,19.718-41.659l3.046-3.875l-14.325-19.203
		c6.343-1.542,14.647,0.341,22.211,5.109l3.882,2.449l3.573-2.873c12.5-10.045,27.449-17.834,43.458-22.68
		c0.141,0.167,0.321,0.315,0.463,0.482c0.977,1.093,1.999,2.153,3.072,3.162c0.27,0.257,0.553,0.501,0.829,0.752
		c1.067,0.964,2.166,1.883,3.31,2.757c0.276,0.206,0.546,0.411,0.823,0.617c0.488,0.36,0.958,0.752,1.465,1.093
		c-8.432,2.134-16.581,5.122-24.216,8.998c-3.168,1.607-4.422,5.476-2.815,8.638c1.607,3.175,5.476,4.435,8.638,2.821
		c14.647-7.442,31.408-11.375,48.445-11.375c17.95,0,35.483,4.338,50.676,12.545c0.97,0.527,2.018,0.771,3.053,0.771
		c2.282,0,4.499-1.215,5.662-3.368c1.69-3.123,0.521-7.025-2.596-8.708c-8.908-4.807-18.516-8.406-28.516-10.771
		c0.315-0.225,0.617-0.469,0.932-0.694c0.437-0.328,0.88-0.649,1.305-0.977c0.996-0.784,1.954-1.607,2.886-2.461
		c0.398-0.36,0.797-0.701,1.183-1.067c1.022-0.996,1.999-2.037,2.937-3.117c0.193-0.219,0.411-0.411,0.604-0.643
		c50.598,14.377,85.586,56.241,85.586,103.067C283.751,227.341,262.922,261.178,228.018,281.358z M314.311,174.898
		c-0.392,0.488-0.9,0.97-1.555,0.983c-1.144-0.174-3.123-0.681-3.554-2.217c-0.276-0.97,0.116-2.172,0.784-2.751
		c0.379-0.18,0.951-0.264,1.69-0.264c1.131,0,2.616,0.193,4.229,0.521C315.577,172.668,315.005,173.998,314.311,174.898z
		 M88.626,169.454c0,5.906-4.788,10.694-10.694,10.694s-10.694-4.788-10.694-10.694c0-5.906,4.788-10.694,10.694-10.694
		S88.626,163.548,88.626,169.454z"/>
</g>
<g>
</g>
<g>
</g>
<g>
</g>
<g>
</g>
<g>
</g>
<g>
</g>
<g>
</g>
<g>
</g>
<g>
</g>
<g>
</g>
<g>
</g>
<g>
</g>
<g>
</g>
<g>
</g>
<g>
</g>
</svg>
