<svg width="175" height="30" viewBox="0 0 175 30" fill="none" xmlns="http://www.w3.org/2000/svg">
<path d="M0.195312 0.343593H174.07V29.3203H0.195312V0.343593Z" fill="#004C8F"/>
<path d="M29.1758 0.343593H174.07V29.3203H29.1758V0.343593Z" fill="#004C8F"/>
<path d="M38.3906 21.6875V7.97703H42.9013V12.6042H47.1278V7.97703H51.6457V21.6875H47.1278V16.368H42.9013V21.6875H38.3906Z" fill="white"/>
<path d="M58.7834 11.3837H59.953C60.7946 11.3837 61.4104 11.4711 61.8039 11.646C62.0953 11.7735 62.3321 11.963 62.5398 12.2472C62.7293 12.5277 62.8823 12.8812 62.9953 13.3257C63.0973 13.7666 63.1519 14.2329 63.1519 14.7247C63.1519 15.5263 63.0426 16.1967 62.8058 16.7396C62.5763 17.2825 62.2447 17.6723 61.8184 17.9128C61.3921 18.1569 60.7582 18.2735 59.9202 18.2735L58.7834 18.2808V11.3837V11.3837ZM60.5249 21.6875C61.5888 21.6875 62.4707 21.6001 63.1921 21.407C63.9171 21.2211 64.5073 20.9733 64.9591 20.6782C65.4182 20.3758 65.8336 19.9678 66.2161 19.4614C66.595 18.9367 66.9266 18.2772 67.1853 17.4684C67.4512 16.6632 67.5788 15.7559 67.5788 14.7284C67.5788 13.22 67.291 11.9448 66.708 10.8809C66.1178 9.83884 65.3162 9.08468 64.2924 8.64017C63.2722 8.19566 62.0553 7.97703 60.6416 7.97703H54.3711V21.6875H60.5249" fill="white"/>
<path d="M69.6445 21.6875V7.97703H80.3418V11.3582H74.0968V13.5552H79.0921V16.8453H74.0968V21.6875H69.6445" fill="white"/>
<path d="M95.4468 13.2191H91.1876C91.1074 12.5378 90.8596 11.9987 90.4479 11.6124C90.0326 11.2335 89.5115 11.0477 88.8702 11.0477C88.0723 11.0477 87.4238 11.3574 86.9246 11.9695C86.4218 12.5889 86.1704 13.5908 86.1704 14.9681C86.1704 15.9299 86.2834 16.6513 86.4911 17.1432C86.706 17.6496 87.0084 18.014 87.3837 18.2581C87.7699 18.5022 88.24 18.6152 88.8193 18.6152C89.5116 18.6152 90.0654 18.4403 90.4698 18.0395C90.8852 17.6642 91.1256 17.1032 91.2058 16.3526H95.5416C95.4468 17.2052 95.2755 17.9193 95.0277 18.5023C94.7909 19.0816 94.3683 19.6572 93.7963 20.2365C93.217 20.8231 92.5248 21.2749 91.7268 21.5882C90.9289 21.9052 90.007 22.0547 88.9504 22.0547C87.9084 22.0547 86.9356 21.9053 86.0575 21.5993C85.1685 21.2859 84.4179 20.8413 83.8204 20.2839C83.2119 19.7046 82.7383 19.056 82.3995 18.3237C81.9113 17.2926 81.6816 16.1595 81.6816 14.8952C81.6816 13.8386 81.8529 12.8366 82.199 11.9184C82.5451 11.0076 83.0225 10.2315 83.6309 9.60479C84.243 8.98175 84.9098 8.51546 85.653 8.20212C86.5931 7.80133 87.6279 7.60825 88.7756 7.60825C89.7739 7.60825 90.6993 7.75388 91.5737 8.04901C92.4445 8.34413 93.1587 8.77413 93.7161 9.34616C94.2809 9.91819 94.7144 10.574 95.0168 11.3209C95.2355 11.8419 95.374 12.4722 95.4468 13.2191" fill="white"/>
<path d="M109.894 11.0631C110.532 11.0631 110.944 11.0922 111.148 11.1505C111.41 11.227 111.629 11.3764 111.785 11.5732C111.946 11.7772 112.03 12.0141 112.03 12.2873C112.03 12.6371 111.891 12.9249 111.625 13.1435C111.341 13.373 110.856 13.4787 110.16 13.4787H108.463V11.0631H109.894ZM111.028 21.6875C112.095 21.6875 112.846 21.6365 113.287 21.5417C113.72 21.4397 114.168 21.2795 114.624 21.0682C115.068 20.835 115.411 20.6164 115.637 20.3759C115.986 20.0516 116.245 19.658 116.434 19.1844C116.624 18.7071 116.719 18.1679 116.719 17.5886C116.719 16.7615 116.515 16.0801 116.099 15.5263C115.684 14.9689 115.126 14.6009 114.423 14.4005C115.615 13.65 116.209 12.6808 116.209 11.5003C116.209 10.2798 115.684 9.34697 114.646 8.713C113.844 8.22477 112.594 7.97703 110.9 7.97703H104.098V21.6875H111.028ZM110.303 15.9454C111.195 15.9454 111.775 16.0547 112.066 16.2842C112.336 16.5064 112.481 16.8125 112.481 17.2242C112.481 17.6396 112.336 17.9675 112.04 18.197C111.76 18.4411 111.173 18.5431 110.303 18.5431H108.463V15.9454H110.303Z" fill="white"/>
<path d="M126.625 17.0785H123.757L125.171 12.0905L126.625 17.0785ZM122.409 21.6875L122.93 19.8877H127.419L127.944 21.6875H132.429L127.51 7.97703H122.93L118.008 21.6875H122.409Z" fill="white"/>
<path d="M134.322 21.6875V7.97703H138.523L143.263 15.3187V7.97703H147.585V21.6875H143.293L138.654 14.528V21.6875H134.322" fill="white"/>
<path d="M150.592 21.6875V7.97703H154.96V12.4986L159.037 7.97703H164.335L159.311 13.1398L164.856 21.6875H159.456L156.159 16.2259L154.96 17.41V21.6875H150.592" fill="white"/>
<path d="M0.195312 0.343593H29.172V29.3203H0.195312V0.343593Z" fill="#ED232A"/>
<path d="M5.26758 5.41504H24.1045V24.252H5.26758V5.41504Z" fill="white"/>
<path d="M13.2344 0.343593H16.1309V29.3203H13.2344V0.343593Z" fill="white"/>
<path d="M0.195312 13.3867H29.172V16.2832H0.195312V13.3867Z" fill="white"/>
<path d="M10.3379 10.4862H19.0312V19.1797H10.3379V10.4862Z" fill="#004C8F"/>
</svg>
