<svg width="175" height="35" viewBox="0 0 175 35" fill="none" xmlns="http://www.w3.org/2000/svg">
<path d="M32.002 34.4797H37.8985L42.521 17.2754H36.6851L32.002 34.4797Z" fill="#004A7F"/>
<path d="M62.2324 34.4797H68.129L72.7515 17.2754H66.8549L62.2324 34.4797Z" fill="#004A7F"/>
<path d="M92.5195 34.4797H98.3583L102.926 17.2754H97.0293L92.5195 34.4797Z" fill="#004A7F"/>
<path d="M56.7413 23.164H62.6378C63.4468 19.2979 60.9622 17.3359 55.1812 17.3359C48.4757 17.3359 43.9688 20.625 42.4087 26.2252C41.0769 31.4185 43.7954 34.5374 50.0936 34.5374C56.4524 34.5374 60.2082 32.5755 61.7711 28.1294H55.8746C55.0078 30.0913 53.5055 31.0723 51.4254 31.0723C48.5913 31.0723 47.4357 29.3412 48.3024 26.0521C49.2269 22.6447 51.4254 20.7404 54.2567 20.7404C56.1057 20.7404 56.9146 21.5483 56.7413 23.164" fill="#004A7F"/>
<path d="M87.0294 23.164H92.926C93.7349 19.2979 91.1897 17.3359 85.4087 17.3359C78.761 17.3359 74.1963 20.625 72.694 26.2252C71.3072 31.4185 74.0229 34.5374 80.3239 34.5374C86.625 34.5374 90.3807 32.5755 91.9986 28.1294H86.1049C85.2931 30.0913 83.733 31.0723 81.6529 31.0723C78.8216 31.0723 77.666 29.3412 78.5876 26.0521C79.4572 22.6447 81.6529 20.7404 84.4842 20.7404C86.336 20.7404 87.2028 21.5483 87.0294 23.164" fill="#004A7F"/>
<path d="M9.28553 7.75493C17.1467 -0.0379442 26.6834 -2.06045 30.4999 3.25117C34.3163 8.56278 30.9621 19.2985 23.101 27.0914C15.2399 34.942 5.70313 36.9616 1.82891 31.5923C-1.92686 26.2259 1.42732 15.5449 9.28553 7.75493" fill="#F06321"/>
<path d="M14.4894 3.59828C13.6227 4.23302 12.756 4.98317 11.8893 5.7939C5.01046 12.6029 2.1185 21.9538 5.53048 26.6307C9.05511 31.3047 17.494 29.5736 24.5462 22.704C28.3626 19.0109 30.905 14.738 31.9451 10.7564C32.234 7.81353 31.8296 5.21398 30.5006 3.25206C27.4959 -0.902602 21.0216 -0.559268 14.4894 3.59828" fill="#AE282E"/>
<path d="M24.4296 4.4639V4.63702C24.3719 5.61798 23.794 6.82975 22.754 7.86841C21.1939 9.36871 19.1137 9.94574 18.2441 9.08307C17.2619 8.15982 17.8426 6.13731 19.4027 4.52161C21.0205 2.96361 23.1006 2.44428 23.9674 3.36753C24.2563 3.65605 24.4296 4.00227 24.4296 4.4639V4.4639ZM18.4204 30.9585C14.7195 33.7283 10.9059 35.1161 7.20508 34.539C8.76516 34.5967 10.0392 32.8627 11.0793 30.5546C12.1193 28.1887 12.6971 25.996 13.2172 23.9158C13.9683 20.6267 14.0261 18.3185 13.6216 17.7992C12.9861 16.9885 11.5993 17.1645 9.97855 18.0877C9.16961 18.5494 8.12957 18.2608 9.34585 16.7605C10.617 15.2603 15.5284 11.6797 17.2619 11.1027C19.2293 10.5834 21.425 11.3335 20.6738 13.4686C20.1509 15.0266 13.3328 32.805 18.4204 30.9585" fill="white"/>
<path d="M111.769 31.7657L113.098 26.8031H116.334V24.1488H113.849L115.005 19.9335H116.334V17.334H111.94L107.375 34.5383H116.334V31.7657H111.769ZM116.334 26.8031H116.97C119.919 26.8031 121.306 27.3225 120.728 29.3421C120.266 31.1309 118.821 31.7657 116.334 31.7657V34.5383C118.764 34.5383 120.555 34.3075 122.346 33.0928C123.559 32.285 124.429 31.0732 124.776 29.6883C125.408 27.3225 124.368 25.7039 121.653 25.3606C124.195 24.8989 125.816 23.5689 126.333 21.4915C126.795 19.9335 126.391 18.7795 125.293 18.0293C124.368 17.3946 122.808 17.334 120.728 17.334H116.334V19.9335H118.59C121.364 19.9335 122.635 20.2798 122.231 22.0109C121.71 23.6843 120.208 24.1488 117.377 24.1488H116.334V26.8031Z" fill="#004A7F"/>
<path d="M132.518 22.4759V24.608C132.056 24.8417 131.652 25.2457 131.478 25.8227H128.011C128.586 24.1493 130.149 22.9923 132.518 22.4759ZM132.518 32.5769C132.114 32.6923 131.652 32.75 131.189 32.75C129.629 32.75 128.936 32.1124 129.282 30.9583C129.629 29.6311 130.669 29.1695 132.518 28.9964V26.9768C128.528 27.2653 126.333 28.304 125.639 30.9006C125.004 33.2665 126.509 34.8273 129.629 34.8273C130.669 34.8273 131.651 34.6542 132.518 34.308V32.5769ZM135.872 28.9964L135.815 29.1695C135.352 30.9583 134.136 32.173 132.518 32.5769V34.308C133.385 33.9589 134.136 33.5002 134.829 32.8654L134.541 34.5388H138.01C138.184 33.7281 138.357 32.8048 138.588 31.8816L139.917 27.0345C140.033 26.6305 140.09 26.2266 140.09 25.8227V25.2457C139.975 23.2808 138.299 22.2422 135.179 22.2422C134.194 22.2422 133.327 22.3576 132.518 22.4759V24.608C133.038 24.3224 133.674 24.207 134.486 24.207C136.274 24.207 136.97 25.012 136.447 26.746L136.392 26.9191H134.54C133.85 26.9191 133.154 26.9768 132.518 26.9768V28.9964L135.872 28.9964Z" fill="#004A7F"/>
<path d="M141.131 34.5388H144.658L146.334 28.3617C146.912 26.1689 148.934 24.608 151.072 24.608C153.152 24.608 153.906 25.8227 153.213 28.2462L151.534 34.5388H155.062L157.026 27.2076C157.835 24.0916 156.275 22.2422 152.808 22.2422C150.552 22.2422 148.761 23.05 147.201 24.6657L147.605 22.5307H144.081C143.734 24.4349 143.503 25.5919 143.384 26.0535L141.131 34.5388Z" fill="#004A7F"/>
<path d="M158.182 34.5374H161.651L163.385 28.0717L168.068 34.5374H172.864L167.545 27.6678L174.713 22.5293H170.264L163.616 27.3215L166.274 17.3359H162.807L158.182 34.5374Z" fill="#004A7F"/>
</svg>
