<svg width="175" height="53" viewBox="0 0 175 53" fill="none" xmlns="http://www.w3.org/2000/svg">
<path fill-rule="evenodd" clip-rule="evenodd" d="M0 26.25C0 11.7535 13.6932 0 30.5869 0C47.4789 0 61.172 11.7535 61.172 26.25C61.172 40.7483 47.4789 52.5 30.5869 52.5C13.6932 52.5 0 40.7483 0 26.25Z" fill="#003874"/>
<path fill-rule="evenodd" clip-rule="evenodd" d="M26.8732 8.43096L33.9793 6.08789L34.0139 44.4204L26.8477 46.8162L26.8732 8.43096Z" fill="#ED1C24"/>
<path fill-rule="evenodd" clip-rule="evenodd" d="M100.79 41.4242C107.619 41.4242 112.82 37.4615 112.82 30.6413C112.82 23.7848 107.619 19.8203 100.79 19.8203C93.9644 19.8203 88.7637 23.7848 88.7637 30.6413C88.7637 37.4615 93.9644 41.4242 100.79 41.4242ZM100.79 36.4308C97.4966 36.4308 96.1485 33.6951 96.1485 30.6413C96.1485 27.5475 97.4966 24.8155 100.79 24.8155C104.087 24.8155 105.435 27.5475 105.435 30.6413C105.435 33.6951 104.087 36.4308 100.79 36.4308" fill="#ED1C24"/>
<path fill-rule="evenodd" clip-rule="evenodd" d="M112.164 25.2894H116.254V33.6946C116.254 38.608 117.802 41.4237 124.19 41.4237C125.977 41.4237 127.329 41.1855 128.677 41.0274L128.438 36.3903C127.724 36.5085 126.97 36.6666 126.256 36.6666C123.994 36.6666 123.396 35.3979 123.396 32.9003V25.2894H128.398V20.2942H123.396L123.394 13.1523L116.372 15.6554V20.2942H112.164V25.2894Z" fill="#ED1C24"/>
<path fill-rule="evenodd" clip-rule="evenodd" d="M153.404 40.9493H160.551V30.7227H160.629L166.347 40.9493H175L167.218 29.7702L174.402 20.2961H166.584L160.629 28.9777H160.551V13.1797L153.404 15.6518V40.9493Z" fill="#ED1C24"/>
<path fill-rule="evenodd" clip-rule="evenodd" d="M69.7383 40.9493H76.8863V30.7227H76.9647L82.6828 40.9493H91.3355L83.5535 29.7702L90.738 20.2961H82.9196L76.9647 28.9777H76.8863V13.1797L69.7383 15.5318V40.9493Z" fill="#ED1C24"/>
<path fill-rule="evenodd" clip-rule="evenodd" d="M150.868 41.046C150.546 39.4028 150.466 37.7577 150.466 36.1108V28.3291C150.466 21.9488 145.844 19.6621 140.501 19.6621C137.408 19.6621 134.716 20.102 132.146 21.1472L132.268 26.0406C134.273 24.919 136.605 24.4755 138.935 24.4755C141.547 24.4755 143.675 25.2389 143.715 28.0873C142.793 27.9274 141.507 27.8074 140.341 27.8074C136.485 27.8074 129.535 28.5709 129.535 34.9493C129.535 39.4828 133.231 41.5277 137.368 41.5277C140.341 41.5277 142.348 40.3644 143.997 37.7577H144.077C144.077 38.8411 144.197 39.9245 144.238 41.046H150.868ZM136.282 34.4276C136.282 32.4208 138.212 31.6592 140.662 31.6592C141.747 31.6592 142.793 31.7392 143.715 31.7792C143.715 34.2277 141.988 36.7125 139.257 36.7125C137.569 36.7125 136.282 35.8709 136.282 34.4276Z" fill="#ED1C24"/>
<path fill-rule="evenodd" clip-rule="evenodd" d="M53.5881 28.8937C52.9214 34.3778 49.8392 39.9165 43.1083 39.9274C39.1791 39.9346 36.1096 37.2498 33.9838 33.9652V30.1606C36.6434 31.4785 39.1299 32.8927 42.1465 32.9363C45.8626 32.9909 49.2217 31.5658 50.6116 28.8937H53.5881ZM31.0892 32.3365C28.0016 36.0501 25.0177 39.8437 19.4272 39.8437C11.5304 39.8437 7.78516 32.2256 7.78516 25.8562C7.78516 19.7359 10.7125 12.4922 18.4052 12.4922C21.7425 12.4922 24.954 14.5281 26.8685 16.6821L26.863 21.8772C25.2637 20.8029 21.6805 19.7486 19.3416 19.7104C14.4632 19.6286 10.1624 21.739 10.2371 26.5433C10.2881 29.8516 13.5725 32.1002 16.8405 32.1002C21.8463 32.1002 24.8775 27.5376 27.4114 24.0748C28.12 23.1696 30.1128 20.5102 30.4243 20.0831C33.2387 16.1586 36.4958 12.5758 42.0864 12.5758C48.6716 12.5758 52.3695 17.8727 53.4151 23.3259H50.4458C49.2508 21.5573 46.9501 20.4757 44.684 20.4757C39.5106 20.4757 36.4175 25.2255 33.8308 28.7228C33.8308 28.7228 31.8179 31.4603 31.0892 32.3365" fill="white"/>
</svg>
