<svg width="174" height="108" viewBox="0 0 174 108" fill="none" xmlns="http://www.w3.org/2000/svg">
<path fill-rule="evenodd" clip-rule="evenodd" d="M63.1855 96.0412H110.023V11.4961H63.1855V96.0412Z" fill="#FF5F00"/>
<path fill-rule="evenodd" clip-rule="evenodd" d="M66.1598 53.7686C66.1598 36.6164 74.1549 21.3401 86.6047 11.496C77.4989 4.29551 66.0111 0 53.5241 0C23.9629 0 0 24.0734 0 53.7686C0 83.4638 23.9629 107.537 53.5241 107.537C66.0111 107.537 77.4989 103.242 86.6047 96.0411C74.1549 86.1955 66.1598 70.9207 66.1598 53.7686Z" fill="#EB001B"/>
<path fill-rule="evenodd" clip-rule="evenodd" d="M171.539 87.0872V85.0006H170.996L170.373 86.436L169.749 85.0006H169.206V87.0872H169.588V85.5129L170.174 86.8706H170.571L171.157 85.51V87.0872H171.539ZM168.103 87.0872V85.3561H168.799V85.0036H167.029V85.3561H167.723V87.0872H168.103ZM173.21 53.7686C173.21 83.4638 149.246 107.537 119.686 107.537C107.199 107.537 95.7098 103.242 86.6055 96.0411C99.0553 86.197 107.05 70.9207 107.05 53.7686C107.05 36.6179 99.0553 21.3416 86.6055 11.496C95.7098 4.29551 107.199 0 119.686 0C149.246 0 173.21 24.0734 173.21 53.7686Z" fill="#F79E1B"/>
</svg>
