<svg width="175" height="57" viewBox="0 0 175 57" fill="none" xmlns="http://www.w3.org/2000/svg">
<g clip-path="url(#clip0_568_484)">
<path d="M113.958 0.0878906C101.545 0.0878906 90.4515 6.52819 90.4515 18.4271C90.4515 32.073 110.125 33.0155 110.125 39.8708C110.125 42.7572 106.821 45.3411 101.177 45.3411C93.1662 45.3411 87.1793 41.7307 87.1793 41.7307L84.6176 53.738C84.6176 53.738 91.5144 56.7877 100.671 56.7877C114.243 56.7877 124.922 50.0312 124.922 37.9288C124.922 23.5095 105.166 22.595 105.166 16.2322C105.166 13.971 107.879 11.4935 113.507 11.4935C119.857 11.4935 125.038 14.1193 125.038 14.1193L127.545 2.52218C127.545 2.52218 121.908 0.0878906 113.958 0.0878906V0.0878906ZM0.388465 0.963143L0.0878906 2.71364C0.0878906 2.71364 5.31017 3.67034 10.0137 5.57872C16.0698 7.76707 16.5013 9.04102 17.5212 12.9978L28.6356 55.8851H43.5346L66.4875 0.963143H51.6227L36.8741 38.3049L30.8558 6.65227C30.3038 3.02965 27.5081 0.963143 24.086 0.963143H0.388465V0.963143ZM72.4648 0.963143L60.8039 55.8851H74.9787L86.5987 0.963143H72.4648V0.963143ZM151.523 0.963143C148.105 0.963143 146.294 2.79489 144.965 5.99583L124.198 55.8851H139.063L141.939 47.5702H160.048L161.797 55.8851H174.913L163.471 0.963143H151.523V0.963143ZM153.456 15.8014L157.862 36.4108H146.058L153.456 15.8014V15.8014Z" fill="#1434CB"/>
</g>
<defs>
<clipPath id="clip0_568_484">
<rect width="175" height="56.875" fill="white"/>
</clipPath>
</defs>
</svg>
